<?xml version="1.0" encoding="UTF-8" standalone="no"?>
<!-- Created with Inkscape (http://www.inkscape.org/) -->

<svg
   width="100mm"
   height="100mm"
   viewBox="0 0 100 100"
   version="1.1"
   id="svg5"
   inkscape:version="1.2.2 (732a01da63, 2022-12-09)"
   sodipodi:docname="initials.svg"
   inkscape:export-filename="..\..\..\Websites\carsonbergen.github.io\public\logo.png"
   inkscape:export-xdpi="274.32001"
   inkscape:export-ydpi="274.32001"
   xmlns:inkscape="http://www.inkscape.org/namespaces/inkscape"
   xmlns:sodipodi="http://sodipodi.sourceforge.net/DTD/sodipodi-0.dtd"
   xmlns="http://www.w3.org/2000/svg"
   xmlns:svg="http://www.w3.org/2000/svg">
  <sodipodi:namedview
     id="namedview7"
     pagecolor="#ffffff"
     bordercolor="#000000"
     borderopacity="0.25"
     inkscape:showpageshadow="2"
     inkscape:pageopacity="0.0"
     inkscape:pagecheckerboard="0"
     inkscape:deskcolor="#d1d1d1"
     inkscape:document-units="mm"
     showgrid="false"
     inkscape:zoom="2.587745"
     inkscape:cx="233.98751"
     inkscape:cy="200.3675"
     inkscape:window-width="2614"
     inkscape:window-height="1360"
     inkscape:window-x="817"
     inkscape:window-y="0"
     inkscape:window-maximized="1"
     inkscape:current-layer="g4375" />
  <defs
     id="defs2">
    <rect
       x="10.047358"
       y="57.965527"
       width="157.66623"
       height="147.23244"
       id="rect236" />
    <rect
       x="10.047358"
       y="57.965527"
       width="157.66623"
       height="147.23244"
       id="rect236-7" />
  </defs>
  <g
     inkscape:label="Layer 1"
     inkscape:groupmode="layer"
     id="layer1">
    <g
       id="g2678"
       style="display:inline">
      <path
         style="fill:#a07cff;fill-opacity:1;stroke-width:1.46055;stroke-linecap:round;stroke-linejoin:round"
         d="m 263.57379,257.26233 c -0.48649,-1.80667 -1.19433,-2.24025 -7.3938,-4.52901 -4.4388,-1.63874 -8.80045,-3.55727 -13.11351,-5.76816 -4.94212,-2.53334 -17.86805,-7.58048 -24.92288,-9.73155 -5.26642,-1.60576 -11.08587,-4.08033 -14.14949,-6.0167 -1.14448,-0.72336 -4.36783,-2.30579 -7.16302,-3.51651 -8.28064,-3.58673 -14.81944,-6.82491 -14.81783,-7.33818 8.1e-4,-0.26381 1.08769,-2.41452 2.41523,-4.77935 1.76535,-3.14471 7.20476,-13.87781 7.86177,-15.51292 0.0231,-0.0574 1.50208,-0.20057 3.28671,-0.31818 4.93535,-0.32527 11.2582,-1.32338 12.20875,-1.92724 0.77515,-0.49244 4.21936,-1.0885 9.19857,-1.59193 1.0627,-0.10745 2.10608,-0.32967 2.31862,-0.49382 0.21254,-0.16416 2.03845,-0.42102 4.05759,-0.5708 2.01913,-0.14977 4.97537,-0.52245 6.56942,-0.82815 1.59406,-0.30571 5.68063,-0.72215 9.08127,-0.92542 3.40064,-0.20328 9.57397,-0.58626 13.71851,-0.85106 14.15972,-0.90471 41.2861,-0.42115 46.1792,0.8232 2.22438,0.56567 2.89452,0.50503 2.92544,-0.26474 0.0235,-0.58391 0.0675,-0.57309 0.32269,0.0793 0.21613,0.55255 0.72846,0.78452 1.90703,0.86344 0.88633,0.0593 3.3061,0.52418 5.37725,1.03296 3.59447,0.88297 8.94878,1.90958 12.26736,2.35209 2.2477,0.29971 4.44403,0.97067 4.44403,1.35762 0,0.34389 -7.20278,5.74288 -9.69691,7.26851 -0.76368,0.46714 -2.06791,1.39173 -2.89827,2.05465 l -1.50977,1.20532 -4.83046,-0.2377 c -2.65675,-0.13074 -11.35158,-0.33501 -19.32184,-0.45394 l -14.49138,-0.21623 -5.60334,1.14494 c -8.79781,1.79768 -17.17221,4.23268 -22.22949,6.46361 -2.55564,1.12737 -5.59883,2.42394 -6.76265,2.88126 -1.16381,0.45731 -2.9855,1.32254 -4.04821,1.92271 -1.0627,0.60018 -4.88842,2.59717 -8.50161,4.43776 -3.61318,1.8406 -7.21306,3.85899 -7.99974,4.48533 l -1.43031,1.13878 -5.52555,-2.35593 c -7.5876,-3.23514 -9.48384,-4.01996 -11.61193,-4.80599 -1.04555,-0.38618 -1.83557,-0.92155 -1.83557,-1.2439 0,-0.31125 0.93368,-2.24396 2.07485,-4.29491 1.14117,-2.05095 3.32402,-6.11079 4.85076,-9.02187 l 2.77591,-5.29288 1.81527,-0.23432 c 4.06221,-0.52437 4.67195,-0.65819 5.35418,-1.17513 0.6231,-0.47213 0.18166,-0.54002 -3.5389,-0.54419 -2.33795,-0.003 -5.98977,0.24717 -8.11518,0.55511 -2.1254,0.30794 -4.99469,0.57157 -6.37621,0.58586 l -2.51183,0.026 -1.21445,3.56082 c -1.69525,4.97053 -3.74435,10.23476 -4.75502,12.21584 -0.99983,1.95984 -0.82877,3.2234 0.55955,4.13306 0.52471,0.34381 4.13031,1.71847 8.01243,3.05482 3.88212,1.33635 8.04869,2.87672 9.25904,3.42305 2.7442,1.23868 7.3559,2.96759 16.54155,6.20136 8.0594,2.83727 11.55475,4.12216 13.52529,4.97188 0.74389,0.32077 2.30896,0.70738 3.47793,0.85913 1.16898,0.15176 3.34268,0.81209 4.83047,1.4674 1.48778,0.65532 4.70486,1.75283 7.14908,2.43891 2.44421,0.68608 5.98965,1.70672 7.87875,2.26807 l 3.43473,1.02065 2.42804,-1.6638 c 2.84598,-1.9502 12.4901,-9.08784 28.33554,-20.97124 6.24543,-4.68381 13.64143,-10.16803 16.43554,-12.18716 2.79412,-2.01914 6.55295,-4.81561 8.35295,-6.21438 1.8,-1.39878 4.22917,-3.17521 5.39814,-3.94762 1.16897,-0.77242 2.73404,-1.9429 3.47793,-2.60107 0.74389,-0.65817 1.9943,-1.46147 2.77869,-1.78509 0.78439,-0.32363 1.69398,-0.99716 2.02132,-1.49673 0.89787,-1.37032 15.45902,-11.00568 16.63201,-11.00568 0.71784,0 0.98132,-0.20387 0.98132,-0.75928 0,-0.41761 0.33423,-0.93816 0.74274,-1.15678 1.17026,-0.62631 1.96231,-1.55654 1.96231,-2.30466 0,-0.57012 -0.94063,-0.89513 -5.50672,-1.9027 -5.12031,-1.12986 -12.26837,-2.3782 -13.61774,-2.3782 -1.02989,0 -0.62411,0.68333 0.6721,1.1318 0.69076,0.23899 1.52287,0.78478 1.84913,1.21287 0.32626,0.42809 2.29323,1.7916 4.37104,3.03003 l 3.77783,2.25167 -1.47276,1.15064 c -0.81002,0.63286 -2.34225,1.64214 -3.40495,2.24287 -1.0627,0.60072 -2.65886,1.67254 -3.54704,2.38181 l -1.61485,1.28958 -6.9071,-4.58556 c -3.79891,-2.52206 -8.02828,-5.58889 -9.3986,-6.81519 -1.37032,-1.22629 -2.92623,-2.50936 -3.45758,-2.85126 -0.53135,-0.34189 -6.31678,-4.40632 -12.85651,-9.03205 -6.53973,-4.62573 -12.07139,-8.41043 -12.29259,-8.41043 -0.61014,0 -19.02525,8.56395 -22.76907,10.58876 -3.27168,1.76946 -5.6515,2.94942 -19.41754,9.62762 -4.81147,2.33415 -7.32331,3.76205 -7.47861,4.25134 -0.16994,0.53545 0.26,1.2381 1.57366,2.57182 l 1.80749,1.83509 -1.23644,0.24728 c -0.68004,0.13602 -2.30156,0.25487 -3.60337,0.26412 -1.30181,0.009 -3.14946,0.18149 -4.10589,0.38273 -0.95643,0.20124 -3.91267,0.54247 -6.56942,0.75829 -2.65676,0.21582 -6.0878,0.50146 -7.62454,0.63475 -2.35586,0.20434 -2.83145,0.14496 -3.03236,-0.3786 -0.13106,-0.34152 -1.10481,-1.15413 -2.1639,-1.80579 -3.72093,-2.28951 -11.47989,-9.13719 -12.84959,-11.34041 -0.28277,-0.45485 -0.89295,-3.08765 -1.35596,-5.85067 -0.46302,-2.76303 -0.99854,-5.89316 -1.19006,-6.95587 -1.69608,-9.41135 -2.29702,-13.55864 -2.30517,-15.909 -0.006,-1.8668 0.081,-2.0516 1.33855,-2.82883 0.74001,-0.45735 1.50507,-0.73291 1.70013,-0.61236 0.59557,0.36808 1.30232,4.02671 1.04392,5.40407 -0.17051,0.90892 -0.0881,1.35685 0.27542,1.49633 0.30049,0.11531 0.87941,1.8822 1.37581,4.19903 0.47137,2.19998 1.09487,4.78249 1.38555,5.73892 l 0.52852,1.73897 0.0293,-1.93218 c 0.0162,-1.06271 -0.22201,-3.32336 -0.52922,-5.02368 -1.00958,-5.58769 -1.02017,-5.55035 2.60257,-9.18366 1.75346,-1.75857 6.86258,-7.1279 11.3536,-11.93185 7.79895,-8.34236 9.43156,-10.52977 8.94609,-11.98619 -0.0809,-0.24257 -1.375,0.61585 -2.87587,1.90761 -1.74566,1.50244 -4.03601,2.96314 -6.35688,4.05418 -1.99542,0.93804 -5.10615,2.53159 -6.91274,3.54123 -1.8066,1.00963 -4.58189,2.35415 -6.16732,2.98781 -1.58543,0.63367 -3.55876,1.76298 -4.38517,2.50959 -0.82641,0.74661 -2.57242,1.84394 -3.88004,2.43852 -2.76399,1.2568 -9.20617,6.4829 -11.37739,9.22969 -1.0011,1.26649 -1.9239,3.16218 -2.77966,5.71023 -1.15122,3.42774 -1.28503,4.28433 -1.32017,8.45157 -0.0428,5.07563 0.43127,6.75895 2.63918,9.3711 1.61398,1.90947 3.0166,1.74774 4.45042,-0.51317 1.83091,-2.88702 2.02943,-6.34609 0.36423,-6.34609 -0.41987,0 -1.62192,0.80306 -2.67124,1.78458 l -1.90786,1.78457 -0.39421,-1.03686 c -0.57568,-1.51416 -0.5953,-1.47352 1.92441,-3.98543 1.27524,-1.27129 2.31862,-2.59474 2.31862,-2.94099 0,-0.68874 -1.1651,-0.85562 -1.76755,-0.25317 -0.22341,0.22342 -0.84377,0.24748 -1.52642,0.0592 -0.99941,-0.27561 -1.13712,-0.47737 -1.05136,-1.54024 0.0543,-0.67269 0.41836,-2.13399 0.80905,-3.24732 0.60138,-1.71369 0.84603,-2.00874 1.59468,-1.92315 0.86282,0.0986 2.79855,0.94042 5.31415,2.31094 l 1.24714,0.67946 0.008,3.67115 c 0.008,3.61124 -0.60046,11.56899 -0.97942,12.80277 -0.15695,0.51097 -8.6989,7.32251 -16.11315,12.84898 l -1.4932,1.11301 -1.0609,-1.0164 c -0.58349,-0.55902 -1.1818,-1.0164 -1.32957,-1.0164 -0.14778,0 -0.27135,0.82601 -0.2746,1.83557 -0.003,1.00957 -0.16044,2.07964 -0.34929,2.37794 -0.55718,0.88005 -3.06757,-7.40108 -4.61601,-15.22696 -1.15214,-5.82301 -1.3009,-8.77473 -0.70112,-13.91173 0.46145,-3.95224 0.85114,-5.43641 2.63811,-10.04736 1.68228,-4.34081 2.60323,-6.09752 4.65952,-8.88804 3.4584,-4.69329 6.87732,-7.50488 10.39702,-8.55012 1.10076,-0.32689 3.51118,-1.43267 5.35648,-2.4573 3.65014,-2.02678 9.73972,-4.08276 19.57946,-6.61043 3.3712,-0.86601 7.25978,-2.06249 8.64129,-2.65885 1.38152,-0.59636 2.94658,-1.21427 3.47794,-1.37314 2.02671,-0.60597 7.33971,-3.24478 9.53603,-4.73628 4.77165,-3.24036 8.8452,-8.83191 9.95588,-13.66591 0.47164,-2.05275 1.35771,-10.060694 1.37169,-12.396851 0.002,-0.366487 0.54724,-0.947268 1.21121,-1.290624 l 1.20724,-0.624283 -0.19694,5.927866 c -0.21173,6.373512 -0.63145,8.469792 -2.68431,13.407032 -0.94392,2.27016 -1.84452,3.60604 -3.88759,5.76655 -2.61737,2.76782 -2.99112,3.63207 -1.68063,3.88618 1.38119,0.26781 7.89194,-5.63971 16.88198,-15.31786 3.5352,-3.80579 10.66928,-10.54858 15.13108,-14.301165 0.59952,-0.504229 0.70663,-0.454783 1.06678,0.492477 0.22019,0.57914 0.74383,2.364363 1.16364,3.967162 0.72665,2.774275 0.73109,2.956057 0.0925,3.78649 -4.01938,5.227066 -7.24201,9.149606 -8.54907,10.405806 -0.87417,0.84016 -1.59479,1.70964 -1.60138,1.93219 -0.007,0.22254 -1.57499,2.23053 -3.48535,4.4622 -1.91035,2.23167 -6.03501,7.16949 -9.1659,10.97293 -3.13089,3.80344 -6.34464,7.68322 -7.14166,8.62173 -0.79703,0.93851 -1.44914,1.94735 -1.44914,2.24187 0,0.78587 3.82812,3.19336 6.43529,4.04713 3.84858,1.26028 12.63169,2.44092 15.88843,2.13573 2.28534,-0.21415 2.80678,-0.37988 2.63158,-0.83643 -0.1678,-0.43728 -0.0174,-0.50934 0.64857,-0.31063 2.27542,0.67898 2.60602,1.18683 2.60602,4.00322 0,1.45632 0.0995,3.1478 0.2212,3.75885 0.16361,0.82171 -0.0379,1.4632 -0.77389,2.46354 -0.5473,0.74389 -1.10187,1.65685 -1.23237,2.02879 -0.1305,0.37195 -0.46558,0.67627 -0.74463,0.67627 -0.49751,0 -5.63108,5.43845 -5.93163,6.2839 -0.0841,0.23661 -0.69274,0.86898 -1.35253,1.40528 -0.65978,0.5363 -2.15603,2.02348 -3.325,3.30484 -1.16897,1.28137 -3.658,3.8623 -5.53118,5.73541 -3.52111,3.52098 -4.01574,4.61733 -2.18006,4.83214 0.70489,0.0825 1.88782,-0.57025 4.2475,-2.34371 4.86451,-3.65603 21.35885,-15.6747 24.2531,-17.67212 1.38587,-0.95643 3.42599,-2.3476 4.53361,-3.09149 6.33154,-4.25234 11.67068,-8.02922 15.2529,-10.78984 7.00824,-5.40086 11.20094,-8.532 11.42462,-8.532 0.51261,0 -0.47621,4.18104 -2.59929,10.99063 l -2.28206,7.31949 0.88256,0.81437 c 2.71862,2.50857 7.54329,5.97643 12.3888,8.90478 3.02334,1.82713 6.29719,3.86853 7.27523,4.53646 l 1.77825,1.21439 -0.18782,2.625 c -0.18679,2.61064 0.10606,3.21326 1.02399,2.10722 0.23635,-0.28478 0.78973,-2.32807 1.22975,-4.54064 0.47804,-2.4038 1.0717,-4.29951 1.47507,-4.71028 0.79245,-0.80699 5.82138,-2.75955 9.13286,-3.54599 1.27524,-0.30285 4.13883,-1.34914 6.36354,-2.32507 3.02619,-1.32754 4.32312,-1.71333 5.14953,-1.53182 l 1.10462,0.24262 -0.26634,-1.7761 c -0.18884,-1.25921 -0.13338,-1.77609 0.19055,-1.77609 0.25129,0 2.14042,0.4265 4.19807,0.94779 5.54289,1.40424 10.1494,2.13071 15.25205,2.40532 2.50525,0.13483 4.63481,0.37427 4.73235,0.53209 0.0975,0.15783 -0.73493,0.86443 -1.84994,1.57023 -1.11502,0.7058 -3.15763,2.28716 -4.53914,3.51413 -1.38151,1.22697 -5.38113,4.32951 -8.88805,6.89453 l -6.37621,4.66368 -0.31257,-1.56906 c -0.33923,-1.70292 -0.49644,-1.76932 -2.72442,-1.15067 -0.82018,0.22774 -2.90694,0.64813 -4.63724,0.93422 -7.19717,1.18995 -8.43425,1.70717 -7.63867,3.19373 0.30122,0.56283 1.12331,0.90157 3.03261,1.24958 1.44066,0.2626 3.66275,0.87688 4.93799,1.36507 2.3407,0.89608 5.8564,1.9858 9.96907,3.08999 1.23218,0.33082 2.339,0.85865 2.45961,1.17295 0.33435,0.8713 -1.19628,2.77071 -4.80744,5.96573 -1.80167,1.59405 -5.64613,5.07199 -8.54323,7.72874 -2.8971,2.65675 -6.13549,5.52428 -7.19641,6.37228 -1.06092,0.848 -3.32539,2.76086 -5.03214,4.2508 -3.55311,3.10176 -6.86553,5.75 -15.05935,12.03977 -3.1881,2.44727 -6.40519,5.02731 -7.14908,5.73343 -0.74389,0.70612 -1.87772,1.60516 -2.51962,1.99787 -1.81123,1.10809 -16.24483,11.93225 -19.7005,14.77394 -3.95562,3.25282 -13.37982,11.66855 -17.43904,15.57293 -1.72749,1.66158 -3.24239,3.02106 -3.36643,3.02106 -0.12405,0 -0.40211,-0.65571 -0.61791,-1.45714 z m -43.9922,-39.09698 c 7.56672,-2.89254 15.57486,-5.70337 17.67708,-6.20459 1.16151,-0.27694 2.82634,-0.81958 3.69961,-1.20587 2.29717,-1.01614 16.00037,-4.53566 20.07981,-5.15728 1.91286,-0.29148 8.39731,-0.72608 14.40988,-0.96577 10.67774,-0.42569 12.06104,-0.55923 12.06104,-1.1644 0,-0.52914 -3.77516,-0.81363 -10.35621,-0.7804 -3.54959,0.0179 -6.67116,0.025 -6.93684,0.0158 -0.612,-0.0212 -0.58952,-2.3653 0.0428,-4.46077 l 0.46641,-1.54575 h 6.82671 c 4.94603,0 6.95982,-0.13307 7.3099,-0.48304 1.0757,-1.07535 -0.34386,-1.44353 -6.54868,-1.69849 -3.33758,-0.13714 -9.02456,-0.45731 -12.63775,-0.71149 -6.63677,-0.46688 -14.85054,-0.12569 -19.70828,0.81866 -1.0627,0.20659 -3.71443,0.53372 -5.89273,0.72694 -6.08604,0.53985 -8.75453,1.49193 -5.92405,2.11361 0.62618,0.13753 1.9714,-0.002 3.02097,-0.31396 3.54412,-1.05249 3.90228,0.17742 2.1847,7.50218 l -1.00778,4.29775 -1.9871,0.86395 c -1.09291,0.47518 -2.94354,1.22214 -4.11252,1.65992 -12.98216,4.86183 -19.70827,7.75862 -19.70827,8.48793 0,0.47693 3.29638,-0.36338 7.04132,-1.79496 z m 12.45952,-38.27021 c 1.16113,-0.71762 7.04905,-8.13802 13.14149,-16.56188 2.46532,-3.40874 2.69446,-3.88754 2.70506,-5.6524 l 0.0116,-1.9282 -3.02388,-1.05032 c -3.47975,-1.20867 -5.98337,-2.71825 -9.53513,-5.74928 -3.00447,-2.56398 -4.26716,-3.45959 -4.87754,-3.45959 -0.25001,0 -2.08071,2.04283 -4.06821,4.53962 -1.98751,2.49678 -5.23162,6.43631 -7.20913,8.75452 -1.97752,2.3182 -3.85688,4.72038 -4.17636,5.33819 -0.83586,1.61636 -0.15056,3.52839 1.50903,4.2103 0.68152,0.28004 3.23894,2.44326 5.68316,4.80716 2.44421,2.3639 4.82619,4.50161 5.2933,4.75046 0.46711,0.24885 1.15671,0.97289 1.53246,1.60898 0.80191,1.35753 1.33938,1.42751 3.01416,0.39244 z"
         id="path1788"
         transform="scale(0.26458333)" />
      <path
         style="fill:#fbeb3c;fill-opacity:1;stroke-width:1.46055;stroke-linecap:round;stroke-linejoin:round"
         d="m 370.16668,221.06647 c -0.29628,-0.29629 -10.43495,-2.80951 -14.838,-3.67812 -2.33794,-0.46121 -6.16367,-1.26011 -8.50161,-1.77533 -6.72737,-1.48253 -9.73913,-2.09119 -14.38155,-2.90642 -6.31552,-1.10904 -6.22604,-1.05391 -4.46442,-2.75079 0.80097,-0.77153 2.18756,-1.98377 3.08131,-2.69388 2.89163,-2.29745 13.38802,-11.22711 15.4517,-13.14532 2.59862,-2.41544 3.41874,-2.41936 5.9963,-0.0287 3.33183,3.09023 3.62859,3.34425 5.27827,4.51815 0.87867,0.62526 1.59759,1.26363 1.59759,1.41862 0,0.15498 3.39098,2.99803 7.53552,6.31789 4.5111,3.61349 7.53465,6.30118 7.53336,6.69656 -0.003,0.87243 -0.64478,3.23175 -1.62541,5.97395 -0.64036,1.79066 -0.95961,2.22201 -1.64452,2.22201 -0.46745,0 -0.92579,-0.0759 -1.01854,-0.16862 z"
         id="path2585"
         transform="scale(0.26458333)" />
      <path
         style="fill:#fbeb3c;fill-opacity:1;stroke-width:1.46055;stroke-linecap:round;stroke-linejoin:round"
         d="m 269.09979,239.97728 c -0.12234,-0.31881 -0.11422,-0.86166 0.0181,-1.20634 0.13226,-0.34468 -0.008,-1.86628 -0.31223,-3.38132 -0.30398,-1.51505 -0.676,-4.74999 -0.82669,-7.18875 -0.3031,-4.90538 -0.61764,-5.68909 -2.82662,-7.04294 -0.77503,-0.47501 -2.94633,-1.98403 -4.82511,-3.35338 -2.37649,-1.73212 -3.2574,-2.57847 -2.8949,-2.78134 0.79465,-0.44471 6.81428,-1.95792 9.20913,-2.31498 1.16898,-0.17429 2.52557,-0.43642 3.01467,-0.5825 0.7519,-0.22458 1.42342,0.26361 4.34741,3.16056 l 3.45816,3.42617 v 8.14279 8.14279 l -1.79401,1.33031 c -6.262,4.64345 -6.19954,4.60875 -6.56786,3.64893 z"
         id="path2656"
         transform="scale(0.26458333)" />
      <path
         style="fill:#fbeb3c;fill-opacity:1;stroke-width:1.46055;stroke-linecap:round;stroke-linejoin:round"
         d="m 242.39251,206.17817 c -1.02932,-1.30511 -1.05124,-2.27149 -0.14493,-6.39032 l 0.68025,-3.0915 2.87214,-0.23931 c 1.57968,-0.13163 4.45959,-0.26205 6.3998,-0.28983 l 3.52766,-0.0505 0.45918,1.10858 c 0.53971,1.30296 2.33425,3.05804 4.36843,4.27237 2.41274,1.44031 2.00621,1.84351 -2.36096,2.3416 -3.04954,0.34781 -3.84961,0.5429 -10.12464,2.46888 -4.09576,1.25711 -4.59192,1.24575 -5.67693,-0.12996 z"
         id="path2658"
         transform="scale(0.26458333)" />
      <path
         style="fill:#fbeb3c;fill-opacity:1;stroke-width:1.46055;stroke-linecap:round;stroke-linejoin:round"
         d="m 270.86143,256.4584 c 0.64501,-1.20522 5.14897,-5.16718 5.40433,-4.75399 0.13197,0.21353 0.17968,1.14584 0.10604,2.07182 l -0.1339,1.68359 -2.45543,0.85695 c -3.04628,1.06316 -3.42403,1.08147 -2.92104,0.14163 z"
         id="path2660"
         transform="scale(0.26458333)" />
      <path
         style="fill:#fbeb3c;fill-opacity:1;stroke-width:1.46055;stroke-linecap:round;stroke-linejoin:round"
         d="m 187.80831,249.34265 c 0,-0.26882 -0.34512,-1.13268 -0.76693,-1.91969 l -0.76694,-1.43093 2.27829,-4.44516 c 1.25305,-2.44484 2.61069,-4.92849 3.01697,-5.51922 0.40628,-0.59072 1.31269,-2.11743 2.01423,-3.39267 0.70154,-1.27524 1.31391,-2.36395 1.36082,-2.41936 0.40217,-0.47498 12.55482,5.8248 12.56757,6.51487 0.002,0.12712 -0.73479,0.55118 -1.63809,0.94235 -0.9033,0.39118 -2.77268,1.52666 -4.1542,2.52331 -1.38151,0.99664 -3.26785,2.19331 -4.19188,2.65926 -0.92402,0.46595 -3.41098,2.22617 -5.52658,3.9116 -2.1156,1.68542 -3.92456,3.06441 -4.0199,3.06441 -0.0953,0 -0.17336,-0.21994 -0.17336,-0.48877 z"
         id="path2662"
         transform="scale(0.26458333)" />
      <path
         style="fill:#fbeb3c;fill-opacity:1;stroke-width:1.46055;stroke-linecap:round;stroke-linejoin:round"
         d="m 135.67599,207.6132 c 0.79831,-1.5415 14.26923,-19.65261 17.3176,-23.28282 1.07085,-1.27525 2.65369,-3.31853 3.51744,-4.54064 1.65415,-2.34045 2.5638,-2.88141 2.16353,-1.28662 -0.2805,1.11761 0.0549,2.15611 0.69633,2.15611 0.25446,0 1.28527,-0.52169 2.29069,-1.15931 1.00543,-0.63763 1.88673,-1.15932 1.95845,-1.15932 0.0717,0 0.2485,0.73906 0.39282,1.64236 0.14433,0.9033 0.92937,3.64217 1.74454,6.08638 2.28435,6.84941 2.28605,6.37427 -0.033,9.23603 l -2.00434,2.47338 0.46617,1.74296 c 0.2564,0.95863 0.32894,1.87157 0.16121,2.02874 -0.72936,0.68346 -7.89925,2.63863 -10.54555,2.87568 -1.59405,0.14279 -6.23042,1.11393 -10.30304,2.15808 -4.07263,1.04416 -7.60015,1.89847 -7.83895,1.89847 -0.31649,0 -0.31212,-0.23566 0.0161,-0.86948 z"
         id="path2664"
         transform="scale(0.26458333)" />
      <path
         style="fill:#fbeb3c;fill-opacity:1;stroke-width:1.46055;stroke-linecap:round;stroke-linejoin:round"
         d="m 155.5701,163.45249 c -1.25914,-0.95077 -2.46442,-1.72867 -2.67839,-1.72867 -1.03896,0 -13.21509,-10.39535 -14.24348,-12.16035 -0.30685,-0.52662 5.49739,-2.98822 10.51639,-4.46004 1.59405,-0.46745 3.07218,-0.98326 3.28472,-1.14624 0.21254,-0.16298 1.34286,-0.51371 2.51184,-0.77941 1.16897,-0.2657 3.24154,-0.80979 4.60571,-1.2091 3.78282,-1.10727 4.014,-1.05016 3.70963,0.91634 -0.13981,0.9033 -0.4347,2.22353 -0.65533,2.93386 -0.52253,1.68232 -0.0366,2.16358 2.19781,2.17648 0.94816,0.005 1.79762,0.20037 1.88771,0.4331 0.0901,0.23274 -0.17942,1.18917 -0.59889,2.12541 -1.10756,2.47199 -2.29391,6.73659 -2.67732,9.6242 -0.57504,4.33093 -0.52568,4.24442 -2.13948,3.74914 -1.26077,-0.38695 -1.47164,-0.3444 -2.09233,0.42211 -0.37964,0.46884 -0.83627,0.8478 -1.01474,0.84214 -0.17848,-0.006 -1.35471,-0.7882 -2.61385,-1.73897 z"
         id="path2666"
         transform="scale(0.26458333)" />
      <path
         d="m 87.588217,125.9629 q -0.25,0.0833 -1.875,0.0833 -1.583332,0 -1.749999,0.16666 -0.08333,0.0833 -0.08333,0.41667 -0.04167,0.5 -0.208333,0.95833 -0.125,0.45834 -0.125,1 l 0.166666,0.16667 q 0.291667,0.25 0.416667,0.5 0.375,0 0.958333,-0.20833 0.583333,-0.20834 0.999999,-0.33334 -0.333333,0.0833 0.708333,-0.125 0.208334,-0.0417 0.291667,-0.0833 0.08333,-0.0833 0.291666,-0.16667 0.25,-0.0417 1,-0.0833 0.791666,-0.0833 1.083333,-0.25 -0.08333,-0.33333 -0.5,-0.54167 -0.833333,-0.29166 -1.374999,-1.5 z m -4.916665,-7.74999 q 0.04167,0.20833 -0.75,-0.79167 -0.458333,-0.41667 -0.791666,-0.58333 -0.04167,0 -0.875,1.04166 -0.833333,1.04167 -0.874999,1.29167 0,0.125 0.166666,0.25 0.08333,0.125 0.08333,0.125 0.04167,0 0.166666,0.0833 1.166666,0.875 1.083333,0.875 -0.04167,0 1.624999,-2 0.125,-0.16666 0.166667,-0.29166 z m -6.291664,-0.0833 q -0.04167,-0.125 -0.04167,-0.20833 -0.125,-0.375 -0.08333,-0.20833 -0.166667,-0.375 0.333333,-0.95834 0.208334,-0.25 0.416667,-0.5 0.25,-0.25 0.5,-0.54166 l 1.749999,-2.125 q 1.124999,-1.45833 1.249999,-1.54167 0.125,-0.0833 0.625,0.29167 1.458333,1.29167 2.041666,1.625 0.75,0.45833 1.374999,0.625 0.666667,0.16667 0.833333,0.375 0.166667,0.29167 -0.125,1.04166 -0.166666,0.20834 -0.416666,0.58334 -0.708333,1 -0.791667,1.08333 -0.124999,0.20833 -0.208333,0.29167 -0.08333,0.0833 -0.208333,0.25 l -2.124999,2.79166 q -0.666666,0.75 -1.083333,0.66667 0,0 0,0 0,-0.0417 0,-0.0417 0,0 -0.04167,0 0,0 0,-0.0417 l -0.374999,-0.5 q -0.333334,-0.25 -0.75,-0.54167 -0.375,-0.33333 -0.75,-0.75 l -1.249999,-1.20833 q -0.625,-0.45834 -0.875,-0.45834 z m -14.708327,-5.74999 q 0.166666,-0.625 0.166666,-0.45834 0,0.16667 0.125,-0.91666 0.04167,-0.41667 -0.291666,-0.375 0.541666,0 -0.5,0.20833 -0.333333,0.0833 -0.583333,0.20833 -0.25,0.0833 -0.541666,0.0833 -0.5,0.0833 -0.583334,0.125 -0.458333,0.20833 -0.416666,0.125 0.08333,-0.0833 -0.291667,0.16666 l -1.833332,0.58334 q -0.125,0.0417 -0.291667,0.125 -0.166666,0.0417 -0.25,0.0417 l -0.499999,0.25 q -0.958333,0.375 -0.958333,0.41667 0,0.25 0.25,0.41667 l 1.708332,1.58333 q 0.166667,0.29167 0.333333,0.33333 0.541667,0.45833 0.375,0.25 0.25,0.29167 0.375,0.33333 l 0.708333,0.5 q 0.125,0.125 0.416667,0.20834 0.458333,0.25 0.874999,0.625 0.458333,0.33333 0.666667,0.375 0,0 0,0 0,-0.0417 0,-0.0417 0,0 0,0 0.04167,-0.0417 0.04167,-0.0417 0,0 0,0 0,-0.0417 0,-0.0417 0.125,-0.375 0.375,-0.375 0.208333,0 0.333333,0.0833 0.166667,0.0833 0.416667,0.0833 0.08333,-0.5 0.08333,-0.625 0,-0.125 0,-0.125 0.04167,-0.0417 0.08333,-0.16666 l 0.04167,-0.66667 q 0.08333,-0.41666 0.08333,-0.25 l 0.458333,-1.66666 q -0.04167,0.125 0.25,-0.45834 l 0.04167,-0.16666 q 0.166667,-0.33334 0.166667,-0.25 -0.04167,-0.0833 -0.08333,-0.0833 -0.04167,-0.0417 -0.04167,-0.16666 0.04167,0.125 -0.04167,-0.20834 0,0.0417 -0.04167,0.0833 0,0.0417 0,0.0417 -0.08333,0.16667 -0.958333,0.0417 0,0 -0.08333,-0.0833 -0.08333,-0.125 -0.08333,-0.125 z m -1.083333,8.33333 q -0.25,0.16666 -0.5,0.58333 -0.25,0.41667 -0.333333,0.5 -0.375,0.375 -0.5,0.54167 -0.125,0.16666 -0.416666,0.54166 l -1.666666,2.125 q -1.125,1.66667 -1.625,2.25 -0.208333,0.29167 -0.874999,1.16667 -0.625,0.83333 -0.666667,1.20833 l 4.166665,-1.08333 q 0.5,-0.125 1.083333,-0.125 0.625,-0.0417 1.166666,-0.16667 1.083333,-0.33333 0.958333,-0.33333 0.791667,-0.20834 0.958333,-0.33334 0,-0.375 -0.08333,-0.375 -0.04167,-0.0417 -0.166667,-0.66666 l 1.125,-1.41667 q -0.125,-0.5 -0.291667,-1.08333 -0.25,-0.70833 -0.499999,-1.45833 -0.25,-0.79167 -0.375,-1.625 -0.25,0.0833 -0.416667,0.25 -0.125,0.125 -0.291666,0.20833 l -0.125,0.0833 q -0.458333,0.33334 -0.541667,0.0417 -0.125,-0.33333 0,-0.33333 0.166667,0 -0.08333,-0.5 z m 59.416642,12.41666 q -0.0833,0.20833 0.20833,-0.66667 0.45834,-1.16666 0.45834,-1.875 l -0.875,-0.79166 q -0.5,-0.375 -0.45834,-0.33334 l -2.16666,-1.75 q -0.375,-0.25 -0.5,-0.375 -0.0833,-0.16666 -0.33334,-0.41666 -0.66666,-0.5 -0.45833,-0.375 -0.45833,-0.25 -0.58333,-0.41667 -0.125,-0.16667 -0.45833,-0.45833 -0.41667,-0.29167 -0.54167,-0.5 -0.5,-0.5 -1,-0.16667 l -1.20833,1.08333 q 0,0 -0.41667,0.33334 l -2.08333,1.75 q -0.33334,0.25 -0.41667,0.33333 -0.16667,0.125 -0.375,0.41667 -0.125,0.125 -0.25,0.16666 -0.0833,0.0417 -0.20833,0.125 l -0.875,0.79167 q -0.25,0.25 -0.25,0.33333 0,0.0417 0.75,0.20834 l 1.70833,0.29166 q 0.375,0.0417 0.75,0.16667 0.41667,0.125 0.83333,0.16667 1.29167,0.25 1.625,0.33333 0.41667,0.16667 0.75,0.16667 0.125,0.0417 0.25,0.0833 0.125,0 0.25,0 0.25,0.0833 0.33334,0.0833 l 2.41666,0.5 q 0.33333,0.125 1.16667,0.33333 0.875,0.16667 1.20833,0.29167 0.33333,0.16667 0.75,0.16667 z m -25.583323,1.16666 q -0.04167,0.16667 -0.04167,0.41667 0,0.125 0,0.20833 0,0.0833 0,0.16667 0,0.625 0.08333,0.625 0.04167,0 0.125,-0.0417 l 1.124999,-0.70833 q 0,0 0.08333,-0.0417 0.125,-0.0833 0.166666,-0.125 l 0.291667,-0.16666 q 0.04167,0 0.08333,-0.0417 0.04167,-0.0417 0.04167,-0.0417 0.499999,-0.29166 0.499999,-0.45833 0,0 -0.04167,0 0,0 0,0 l -0.25,-0.0417 q -0.25,0.0833 -0.25,0.125 0.04167,0.0417 -0.625,0.0417 -0.999999,0 -1.291666,0.0833 z m -3.083332,3.33334 -0.166666,0.54166 0.249999,0.29167 q 0.125,0 0.666667,-0.33333 0.375,-0.29167 0.791666,-0.625 0.416667,-0.375 0.833333,-0.625 v -4.58334 l -0.958333,-0.95833 q -0.166666,-0.125 -0.291666,-0.20833 -0.08333,-0.125 -0.208334,-0.25 -0.416666,-0.375 -0.416666,-0.45833 -0.541667,0 -0.625,0.0833 -0.08333,0.0833 -0.458333,0.0833 -0.625,0 -1.083333,0.20834 -0.458333,0.16666 -0.916666,0.20833 -0.125,0.0417 -0.25,0.0833 -0.125,0.0417 -0.208333,0.0417 -0.04167,0 -0.208334,0.0833 l -0.208333,0.125 q 0,0.125 0.333333,0.33334 l 1.583333,1.16666 q 0.875,0.5 0.791666,0.5 -0.04167,0 0.333334,0.45833 -0.08333,0.375 0,0.91667 0.08333,0.54167 0.125,1.04167 0,0.375 0,0.54166 0.04167,0.16667 0.08333,0.45834 0.125,0.95833 0.08333,0.66666 -0.04167,-0.33333 0.125,0.20834 z m -3.999998,1.16666 -0.333333,0.125 q -0.166667,-0.20833 0.874999,0.41667 0.25,0.0833 0.5,0.0833 0.291667,0 0.541666,0.0833 0.291667,0.16666 0.875,-0.29167 l 0.666666,-0.58333 q 0,0 0,0 0.04167,-0.0417 0.04167,-0.0417 -0.208333,-0.20833 -0.416666,-0.41667 -0.04167,0 -0.08333,0 0,-0.0417 0,-0.0417 l -0.166666,-0.125 q -0.04167,0 -0.08333,-0.0417 -0.04167,-0.0417 -0.08333,-0.125 -0.375,-0.25 -0.5,-0.375 -0.08333,-0.16667 -0.624999,-0.5 l -0.708333,-0.41667 q -0.666667,-0.33333 -0.666667,-0.5 0.04167,-0.16666 -0.708333,-0.375 -0.375,-0.0833 -0.583333,0.0417 l -1.124999,0.79167 q -0.125,0.125 -1.166667,0.66666 0,0 -0.08333,0.0417 -0.04167,0 -0.04167,0 l -0.291666,0.25 q 0.208333,0.25 0.999999,0.45833 0.833333,0.16667 1.083333,0.16667 0.833333,0.0833 1.625,0.41667 0.04167,0.0417 0.08333,0.0833 0.04167,0 0.04167,0 l 0.249999,0.125 q 0,0 0,0.0417 0.04167,0 0.04167,0 0,0 0,0.0417 0.04167,0 0.04167,0 z m -16.66666,-3.33333 q -0.375,0.625 -0.333333,0.54167 l -0.25,0.45833 q 0,0 -0.04167,0.0417 0,0 0,0 l -0.166666,0.33333 q -0.08333,0.125 -0.125,0.16667 0,0 -0.04167,0.0833 l -0.291666,0.5 q -0.541667,0.79167 -0.333334,0.625 0.208334,-0.20833 -0.291666,0.54167 -0.04167,0.0833 -0.08333,0.125 -0.04167,0 -0.04167,0.0417 l -0.25,0.54167 q 0,0.0417 0,0.0417 0,0 0,0 0,0.0417 -0.04167,0.0833 0,0 0,0 l -0.125,0.375 q 0.08333,0.16666 0.125,0.25 0.04167,0.0833 0.166667,0.20833 -0.125,-0.25 0.166667,0.625 0.166666,-0.0417 0.249999,-0.0833 0,0 0.5,-0.41667 0.291667,-0.20833 0.333333,-0.25 0.04167,-0.0417 0.166667,-0.16667 0.04167,0 0.04167,0 0.04167,0 0.125,-0.0417 0.333333,-0.33334 0.333333,-0.33334 l 0.625,-0.49999 q 0.125,-0.0833 0.458333,-0.20834 0.333333,-0.125 0.666666,-0.375 l 1.041666,-0.79166 q 0,0 0.416667,-0.16667 0.416666,-0.16667 0.666666,-0.375 -0.125,-0.16667 -0.874999,-0.54167 -0.75,-0.41666 -0.916667,-0.54166 l -0.333333,-0.20834 q -0.958333,-0.5 -1.541666,-0.58333 z m 42.958313,-12.04166 q -0.66666,0 -0.45833,-0.0417 -0.0833,0.0417 -0.20833,0.16667 -0.0833,0.0833 -0.16667,0.125 l -2.91667,1.91666 q -0.20833,0.20834 -0.5,0.375 -0.29166,0.125 -0.5,0.41667 -0.29166,0.375 -0.29166,0.375 l -0.66667,0.25 q -0.75,0.58333 -0.45833,0.41667 -0.29167,0.20833 -0.54167,0.41666 -0.25,0.20834 -0.5,0.33334 -0.41666,0.25 -0.75,0.5 -0.29166,0.25 -0.66666,0.5 l -0.70834,0.58333 q 0.16667,-0.0833 -0.33333,0.25 l -1.75,1.25 q -0.75,0.5 -1.41667,1.08333 -0.66666,0.54167 -1.374995,1 l -1.208333,0.91667 q 0,0 -0.04167,0.0417 0,0 0,0 l -0.208334,0.16667 q 0,0 -0.04167,0 0,0 0,0 l -3.374999,2.54167 q -0.208333,0.16666 -0.416666,0.29166 -0.166667,0.0833 -0.291667,0.20834 l -2.208332,1.625 q 0,0 0,0 0,0 0,0 -0.04167,0.0417 -0.04167,0.0417 0,0 0,0 l -1.041666,0.79167 q -0.875,0.625 -1.041666,0.625 l -1.166667,-0.33334 q -0.166666,0 -0.833333,-0.29166 -0.583333,-0.16667 -1.166666,-0.29167 -0.583333,-0.125 -1.124999,-0.33333 l -1.416666,-0.625 -1.208333,-0.16667 q -0.375,-0.0833 -0.833333,-0.375 -0.333333,-0.125 -0.666667,-0.20833 -0.333333,-0.0833 -0.583333,-0.25 l -4.666664,-1.625 q -0.458334,-0.20833 -0.875,-0.33333 -0.416667,-0.125 -0.833333,-0.33334 -1.208333,-0.625 -3.624999,-1.33333 -0.08333,0 -0.124999,0 -0.04167,-0.0417 -0.08333,-0.0833 -0.166666,-0.0417 -0.416666,-0.16667 -1.458333,-0.41667 -1.166666,-1.08333 l 0.125,-0.29167 q 0.458333,-0.875 0.666666,-1.58333 0.08333,-0.25 0.166666,-0.45833 0.08333,-0.20834 0.208334,-0.45834 0.375,-0.83333 0.541666,-1.5 0.04167,-0.33333 0.125,-0.45833 0.208333,0 0.333333,0.0417 0.166667,0.0417 0.416667,0 0.625,0 1.624999,-0.16667 1.041666,-0.16667 1.958333,-0.20833 l 1.416666,0.0417 q -0.08333,0.0833 -0.125,0.0833 -0.375,0.20833 -1.125,0.25 -0.708333,0.0417 -0.916666,0.16666 0,0 -0.416667,0.83334 l -0.583333,1.04166 q 0,0 0,0.0417 0,0 0,0 -0.04167,0 -0.04167,0.0417 0,0 0,0 0,0 0,0.0417 0,0 0,0 l -1.041666,1.91667 q -0.666667,1.16666 -0.666667,1.375 0.125,0.125 1.416666,0.58333 0.333333,0.125 0.5,0.25 0.208333,0.0833 0.541666,0.16667 0.375,0.125 0.833333,0.375 0.5,0.25 0.875,0.375 1.208333,0.5 1.208333,0.54166 0.04167,0 0.583333,-0.45833 l 0.708333,-0.41667 q 0.5,-0.33333 1.041666,-0.54166 0.583333,-0.20834 1.125,-0.58334 0,0 0.999999,-0.5 1.125,-0.625 1.458333,-0.75 l 1.541666,-0.625 q 0.5,-0.29166 1,-0.45833 0.499999,-0.20833 1.041666,-0.45833 0,0 0,0 0.04167,0 0.04167,0 l 2.749998,-0.70833 q 0.541667,-0.25 1.125,-0.29167 0.625,-0.0833 1.208333,-0.25 1.291666,-0.29167 2.416665,-0.25 h 0.166667 q 1.583333,0 3.874998,0.0417 2.333326,0.0417 3.833326,0.20833 0.16667,0.0417 0.91667,0.0417 0.75,-0.0417 0.875,-0.125 0.16667,-0.125 0.29167,-0.25 0.125,-0.125 0.33333,-0.25 0.0417,-0.0417 0.125,-0.0833 0.0833,-0.0417 0.20833,-0.16666 l 0.41667,-0.25 q 0,0 0,0 0.0417,-0.0417 0.0833,-0.0417 l 2.375,-1.75 q -0.0833,-0.20833 -0.25,-0.29167 l -0.20833,-0.0417 q 0,0 -0.0417,0 0,0 0,0 l -0.25,-0.0833 q 0,0 -0.0417,0 0,0 0,0 l -0.33334,-0.0833 q -0.375,-0.0417 -0.41666,-0.0833 0.125,0.0833 -0.95834,-0.0833 -0.0417,0 -0.20833,-0.0833 l -0.125,-0.0417 q -1,-0.16666 -0.79167,-0.0833 -0.125,-0.0417 -0.16666,-0.0417 -0.66667,-0.16666 -0.45834,-0.0833 -0.16666,-0.0417 -0.125,0 0.0833,0 -0.0417,-0.0833 l -1.45834,-0.375 q -0.0833,0 -0.16666,0 -0.0417,0 -0.0833,0 -0.0417,-0.0417 -0.0833,-0.0417 -0.0833,0 -0.45833,0.0417 -0.125,-0.25 -0.125,-0.54167 0.45833,0 0.95833,0.125 0.5,0.0833 0.95833,0.0833 -0.0833,-0.16666 -0.125,-0.20833 0.0417,0.0417 -0.5,-0.29167 -0.375,-0.125 -0.66666,-0.33333 -0.29167,-0.25 -0.625,-0.45833 l -0.958333,-0.66667 q -0.125,-0.0417 -0.166667,-0.0833 -0.04167,-0.0417 -0.125,-0.125 l -0.624999,-0.45833 q -0.333333,-0.16667 -1.041666,-0.66667 -0.708334,-0.54167 -0.875,-0.58333 -0.166667,-0.0417 -0.291667,0 l -0.624999,0.375 q 0,0 -0.08333,0.0833 -0.08333,0.0417 -0.08333,0.0417 l -2.833332,1.83333 q -0.416667,0.20833 -0.625,0.41666 0.125,0.16667 0.458333,0.16667 0.375,0 0.583333,0.0417 0.333334,0.0417 2.291666,0.0417 l 0.791666,0.0833 q 0.08333,0 0.08333,0.0417 0.04167,0 0.166666,0 0.458333,0.0833 1,0.0833 0.583333,-0.0417 0.958333,0.0417 l 0.666666,0.0833 q 0,0 0,0 0.04167,0 0.04167,0 0,0 0.04167,0.0417 0.04167,0 0.04167,0 l 0.125,0.0417 q 0,0 0.04167,0.0417 0.04167,0 0.04167,0 0.125,0.0417 0.25,0.0417 0.5,0.0833 0.66666,0.625 -0.499993,0 -0.958326,-0.125 -0.458333,-0.125 -0.875,-0.16666 -0.5,0 -1.041666,0 -0.5,0 -0.916666,-0.125 -1.083333,-0.16667 -1.708333,-0.0833 -0.583333,0.0833 -1.25,0.0417 -0.249999,0 -0.499999,-0.0417 -0.208334,-0.0417 -0.458333,-0.0417 -1.041667,0 -2.041666,0.0417 -1,0.0417 -1.999999,0.0417 l -0.791667,0.0417 q -0.166666,0 -0.208333,0.0417 -0.08333,0 -0.125,0 0,0 -0.04167,0 l -0.291666,0.0417 q -0.958333,0.0833 -3.249999,0.16667 -2.291666,0.0833 -3.124998,0.25 -1.125,0.29166 -2.833333,0.33333 -0.458333,0 -0.541666,0.125 -0.08333,0.125 -0.25,0.0833 -0.75,-0.0417 -1,0.125 -0.208333,0.125 -0.833333,0.125 -0.874999,0.0417 -1.124999,0.25 -0.25,0.20834 -0.583333,0.20834 -0.708333,0.0833 -1.833333,0.29166 -0.25,0.0417 -0.541666,0.0417 -0.25,-0.0417 -0.5,-0.0417 -0.291667,0.0417 -0.458333,0.0833 -0.125,0.0417 -0.458333,0.0417 l -0.166667,0.5 q 0,0 -0.08333,0.16667 l -1.166666,2.29167 q 0.04167,-0.0833 -0.166667,0.375 -0.25,0.5 -0.75,1.29166 -0.499999,0.79167 -0.541666,1.20833 0.25,0.20834 0.5,0.29167 0.291666,0.0833 0.583333,0.25 0.04167,0.0833 1.083333,0.5 0.416666,0.25 0.666666,0.33333 l 2.666666,1.16667 q 0,0 0,0 0,0 0.04167,0 l 0.875,0.54167 q 0.291666,0.20833 1.499999,0.75 1.208333,0.54166 1.416666,0.54166 0.08333,0.0417 0.75,0.20834 0.375,0.125 0.75,0.25 0.416666,0.125 0.791666,0.25 2.083333,0.79166 2.999999,1.16666 0.583333,0.29167 1.166666,0.5 0.583333,0.20833 1,0.45833 0.249999,0.20834 0.666666,0.33334 0.416666,0.125 0.791666,0.33333 -0.125,-0.0833 0.666667,0.375 l 2.999998,1.125 q 0.5,0.25 0.666667,0.375 0.208333,0.25 0.208333,0.95833 0.25,-0.125 0.791666,-0.625 0.541667,-0.54166 0.791667,-0.79166 l 2.374999,-2.125 q 0.208333,-0.16667 0.749999,-0.70833 0.375,-0.33334 0.833333,-0.66667 l 1.208333,-1 q 0.125,-0.0833 0.166667,-0.125 0.08333,-0.0833 0.25,-0.20833 l 1.249999,-0.91667 q 0.125,-0.125 0.208333,-0.16667 l 0.666667,-0.45833 q 0.208333,-0.20833 0.375,-0.33333 l 1.083332,-0.75 q 0,0 0.20834,-0.20834 0.25,-0.20833 0.54166,-0.33333 0.29167,-0.16667 0.5,-0.41667 0.20834,-0.25 1.375,-1.125 l 1.25,-0.95833 q 0.125,-0.0833 0.20834,-0.125 0.0833,-0.0833 0.20833,-0.20833 0.16667,-0.0833 0.41667,-0.33333 0.125,-0.125 0.20833,-0.125 0.0833,-0.0417 0.25,-0.16667 0.16667,-0.125 0.375,-0.33333 l 1.04167,-0.83334 q 0.125,-0.0833 0.20833,-0.16666 l 1.58333,-1.375 q 0.125,-0.125 0.16667,-0.125 0.0833,-0.0417 0.20833,-0.16667 l 0.83333,-0.70833 q 0.0417,-0.0417 0.0833,-0.0417 0.0417,-0.0417 0.125,-0.125 0,0 0,0 0.0417,-0.0417 0.0833,-0.0833 l 2.16667,-2 q 0,0 0,0 0,0 0,-0.0417 l 0.66666,-0.5 q 0.58334,-0.58333 0.75,-0.70833 0.20834,-0.125 0.29167,-0.29167 0.125,-0.16666 0.5,-0.41666 0.0833,-0.0417 0.16667,-0.20834 0.375,-0.375 0.375,-0.75 -0.33334,-0.29166 -1,-0.41666 -0.66667,-0.125 -1.08334,-0.29167 -0.54166,-0.20833 -0.75,-0.20833 -0.20833,-0.0417 -0.79166,-0.33334 l -0.45834,-0.16666 q -1.16666,-0.25 -1.5,-0.25 -0.125,-0.125 -0.16666,-0.25 -0.20834,-0.375 0.5,-0.5 0.25,0 0.54166,-0.0833 0.29167,-0.125 0.54167,-0.16666 l 1.25,-0.16667 q 0.0417,0 0.29167,-0.0833 0.58333,-0.16667 0.83333,-0.16667 l 0.16667,0.66667 q 0,0 0,0.0833 0.0417,0.0833 0.0417,0.0833 0.0833,0 0.41667,-0.20833 l 2.45833,-1.83333 q 0,0 0,0 0.0417,0 0.0417,0 l 0.16666,-0.125 q 0,0 0,0 0.0417,-0.0417 0.0417,-0.0417 0,0 0.0417,0 0.0417,-0.0417 0.0417,-0.0417 l 0.125,-0.0833 q 0,0 0,0 0.0417,-0.0417 0.0833,-0.0833 l 0.5,-0.41667 q 0,0 0,0 0,0 0.0417,0 0,0 0,0 0,-0.0417 0,-0.0417 0,0 0,0 0.0417,0 0.0417,0 l 0.16667,-0.16666 q 0.16666,-0.16667 0.16666,-0.16667 0.16667,-0.0833 0.66667,-0.58333 l 1.08333,-0.66667 q 0,0 0,0 0,-0.0417 0,-0.0417 l 0.25,-0.16667 -0.41666,-0.125 q -0.125,0 -0.25,0 -0.125,0 -0.25,0 -0.91667,0 -1.16667,-0.0833 -0.20833,-0.0833 -0.70833,-0.0833 -0.45834,0 -1.33334,-0.16666 -0.83333,-0.16667 -1.33333,-0.29167 -1.25,-0.375 -1.70833,-0.375 0,0.5 0.0417,0.58333 0.0417,0.0417 0.0417,0.41667 -0.54166,-0.20833 -0.83333,-0.0417 l -0.0833,0.0417 q 0,0 -0.0417,0.0417 0,0 0,0 l -1.625,0.70833 q -0.33333,0.16666 -0.83333,0.25 -0.45834,0.0833 -0.79167,0.20833 -0.20833,0.125 -1.08333,0.375 -0.75,0.25 -0.875,0.625 -0.125,0.375 -0.29167,1.41667 -0.16666,1 -0.45833,1.125 -0.125,-0.29167 -0.0417,-0.70834 0.0833,-0.41666 0.0833,-0.79166 l -0.75,-0.45834 q 0,0 0,0 0,-0.0417 0,-0.0417 -0.0833,-0.0417 -0.41667,-0.29167 -0.0833,-0.0833 -0.375,-0.25 l -1.625,-0.95833 q -0.66667,-0.33334 -1.91667,-1.33333 l -0.58333,-0.45834 q -0.0833,-0.0833 -0.125,-0.16666 -0.20833,-0.16667 -0.25,-0.125 0,0 -0.125002,-0.125 0,-0.16667 0.291672,-1.125 0.33333,-0.95834 0.45833,-1.45834 l 0.41667,-1.25 q 0.0833,-0.66666 0.125,-0.75 0.0833,-0.33333 0.16666,-0.75 -0.0833,0.0417 -0.375,0.20834 l -1.458332,1.08333 q -0.125,0.0833 -0.08333,0.0833 0.04167,-0.0417 -0.04167,0 l -0.75,0.625 q -0.5,0.41667 -1.041666,0.79167 -0.5,0.33333 -0.958333,0.70833 l -2.291666,1.54167 q -0.125,0.125 -0.166666,0.16667 0,0 -0.125,0.0833 l -0.833333,0.5 q -0.375,0.375 -0.958333,0.70833 -0.541667,0.29167 -0.916667,0.66667 -0.125,0.0833 -0.249999,0.16666 -0.375,0.33334 -0.5,0.375 l -4.249998,3.08334 q -0.458334,0.33333 -0.541667,0.41666 -0.125,0.125 -0.291666,0.20834 -0.125,0.0833 -0.25,0.20833 -0.291667,0.29167 -0.583333,0.33333 -0.416667,0.0833 -0.416667,-0.41666 0,-0.0417 0.04167,-0.0417 l 0.25,-0.16667 q 0,0 0.08333,-0.0833 0,0 0,0 0,0 0,0 l 0.458333,-0.375 q 0,0 0,0 0,-0.0417 0.04167,-0.0417 l 0.791666,-0.875 q 0,0 0,0 0.04167,0 0.04167,0 0.08333,-0.0833 0.208333,-0.25 0,0 0.375,-0.375 0.04167,-0.0417 0.04167,-0.0417 0,-0.0417 0.04167,-0.0833 0.166667,-0.29166 1.166666,-1.16666 l 0.08333,-0.0417 q 0.04167,0 0.08333,-0.0417 l 0.04167,-0.125 q 0,-0.0833 0.04167,-0.16666 0,0 0.25,-0.25 0.375,-0.25 0.333333,-0.375 0,-0.125 0.333333,-0.375 l 0.08333,-0.0417 q 0,0 0,0 0.04167,-0.0417 0.04167,-0.0417 l 0.291667,-0.33334 q 0,0 0,0 0.04167,-0.0417 0.04167,-0.0417 0.249999,-0.29167 0.374999,-0.16667 0,0 0.125,0.0833 -0.125,-0.625 -0.08333,-0.375 0.125,0 0.291667,-0.20833 l 0.208333,-0.41667 q 0,0 0,0 0,-0.0417 0,-0.0417 0.04167,-0.0833 0.04167,-0.0833 0.04167,-0.0417 0.125,-0.16666 0,-0.25 -0.08333,-0.5 -0.04167,-0.125 -0.04167,-0.20834 -0.04167,-0.20833 -0.04167,-1.41666 -0.333333,-0.29167 -0.583333,-0.33334 -0.416667,-0.125 -0.541667,0 0.166667,0.125 0.208334,0.20834 -1.458333,0.20833 -2,0.0833 -0.708333,-0.125 -1.833332,-0.29167 -0.708333,-0.0417 -1.749999,-0.45833 -0.25,-0.0833 -0.375,-0.16667 -0.125,-0.125 -0.291667,-0.25 -0.958333,-0.375 -0.375,-0.875 0.25,-0.20833 0.416667,-0.5 0.166666,-0.29166 0.416666,-0.54166 0.375,-0.41667 0.791667,-0.95833 0.458333,-0.58334 0.874999,-1.08334 l 0.833333,-1 q 0.5,-0.54166 1,-1.125 0.5,-0.625 0.999999,-1.20833 0.375,-0.41667 0.333334,-0.45833 -0.04167,-0.0833 0.208333,-0.29167 l 0.583333,-0.58333 q 0.875,-1.125 0.833333,-1.04167 l 0.541666,-0.708332 q 0.04167,-0.04167 0.08333,-0.125 l 0.624999,-0.749999 q 0,0 0,0 0,-0.04167 0,-0.04167 l 0.08333,-0.125 q 0.04167,-0.25 -0.25,-1.208333 -0.25,-0.958333 -0.416667,-1.124999 l -0.624999,0.5 q -0.833333,0.749999 -1.5,1.333332 -0.666666,0.583333 -1.416666,1.375 -0.416666,0.416666 -0.541666,0.583331 -0.458333,0.375 -0.875,0.875 -0.416666,0.45834 -0.791666,0.875 l -0.458333,0.45834 q -0.666667,0.66666 -0.666667,0.66666 -0.125,0.16667 -1.124999,1.04167 0,0 -0.333334,0.25 -0.666666,0.66667 -0.958332,0.33333 0.08333,-0.29166 0.833333,-0.95833 0.749999,-0.66667 1.124999,-1.91667 0.04167,0 0.04167,-0.0417 l 0.125,-0.375 q 0.04167,-0.0417 0.04167,-0.0833 0,0 0,0 0,-0.0417 0,-0.0417 l 0.125,-0.33334 q 0,0 0,0 0,0 0,-0.0417 l 0.125,-0.58334 q 0,0 0,0 0,-0.0417 0,-0.0417 l 0.08333,-0.583338 q 0.04167,0 0.04167,-0.125 0,0 0,0 0,-0.04167 0,-0.04167 0.08333,-0.583333 0.08333,-1.416666 l -0.04167,-1.208332 q 0,-0.166667 -0.166667,-0.166667 0.333333,-0.08333 -0.583333,0.375 -0.125,2.333332 -0.291666,3.333323 -0.166667,0.79167 -0.416667,1.29167 -0.166667,0.25 -0.583333,1 -1.041666,1.5 -2.958332,2.45833 l -1.541666,0.66667 q -0.625,0.125 -0.958333,0.33333 -0.333333,0.20834 -0.666666,0.29167 l -0.541667,0.16667 q -1.791666,0.45833 -2.249999,0.58333 -0.04167,0.0417 -0.583333,0.125 l -1.666666,0.54166 q -1.041666,0.29167 -1.374999,0.45834 -0.08333,0.0417 -0.208334,0.16666 -0.499999,0.25 -0.499999,0.25 l -0.708334,0.375 q -0.374999,0.25 -0.833333,0.33334 -0.416666,0.0417 -0.749999,0.29166 l -0.666667,0.45834 q -0.791666,0.70833 -0.833333,0.75 -0.333333,0.41666 -0.749999,1 -0.416667,0.54166 -0.666667,0.95833 l -0.999999,2.58333 q -0.125,0.29167 -0.166667,0.58333 0,0.25 -0.04167,0.5 -0.333334,2.16667 -0.04167,3.625 l 0.25,1.29167 q 0.166666,0.79167 0.5,2.04167 0.374999,1.24999 0.624999,1.87499 0.375,0 0.291667,-1.29166 0.08333,0.0417 0.333333,0.29166 0.208333,0.41667 0.666666,0.0833 l 4.333332,-3.33333 q 0.25,-0.125 0.333333,-0.54167 0.333333,-2.58333 0.208333,-4.5 -0.125,-0.0833 -0.25,-0.0833 -0.124999,-0.0417 -0.249999,-0.16667 -0.75,-0.5 -1.583333,-0.66666 -0.291667,0.5 -0.5,1.41666 -0.04167,0.25 -0.04167,0.41667 0,0.20833 0.375,0.25 0.5,0.125 0.458333,0.0417 0,-0.0833 0.25,-0.20833 0.25,-0.0417 0.08333,0.29167 -0.125,0.33333 -0.5,0.58333 0,0.0417 -0.04167,0.0833 0,0 0,0 -0.04167,0 -0.04167,0 0,0 0,0 -0.04167,0.0417 -0.04167,0.0417 0,0 0,0 -0.458333,0.33333 -0.541667,0.625 0,0.66667 0.333334,0.79167 l 0.25,-0.25 q 0,0 0,0 0,-0.0417 0,-0.0417 0,0 0.04167,0 0.04167,-0.0417 0.04167,-0.0417 l 0.375,-0.375 q 0,0 0,0 0.04167,-0.0417 0.04167,-0.0417 0,-0.0417 0.04167,-0.0417 l 0.291667,-0.20833 q 0.08333,-0.0417 0.166666,0 l 0.125,0.125 q 0,0 0,0.0417 0,0 0.04167,0 0.125,1 -0.583333,1.79167 -0.666667,0.75 -1.5,-1.04167 -0.333333,-0.75 -0.166666,-2.54166 0.04167,-0.70834 0.499999,-1.875 0.291667,-0.875 0.833333,-1.375 0.166667,-0.16667 0.291667,-0.33333 l 1,-0.875 q 0,0 0.04167,-0.0417 0.04167,-0.0417 0.04167,-0.0417 0,0 0,0 0.04167,0 0.04167,0 0,0 0,0 0.04167,-0.0417 0.04167,-0.0417 l 0.625,-0.5 q 0,0 0,0 0.04167,-0.0417 0.04167,-0.0417 0.166666,-0.16667 0.833333,-0.45833 0.708333,-0.33334 0.874999,-0.45834 0.458333,-0.41666 0.583333,-0.625 0.166667,0 1.5,-0.54166 l 1.208332,-0.66667 q 0,0 0,0 0.04167,-0.0417 0.04167,-0.0417 0,0 0,0 0.04167,0 0.04167,0 1.333333,-0.75 1.916666,-0.95833 l 0.833333,-0.41666 q 0,0 0,0 0.04167,-0.0417 0.04167,-0.0417 l 1,-0.875 q 0.333333,-0.25 0.416666,-0.29167 l -0.208333,0.75 q 0,0.0833 -0.208333,0.29167 l -2.749999,2.91666 q -0.541666,0.54167 -0.416666,0.45834 l -1.625,1.75 q -0.04167,0.0417 -0.125,0.0833 l -0.125,0.125 q -0.04167,0.0417 -0.08333,0.0833 0,0 0,0 -0.333333,0.45834 -0.583333,0.625 -0.25,0.125 -0.375,0.375 0,0 -0.04167,0.0417 0,0.0417 0,0.0417 -0.125,0.5 0.125,1.83333 0.291667,1.29166 0.166667,1.75 l -0.08333,-0.45834 q -0.04167,-0.125 -0.08333,-0.16666 -0.04167,-0.0417 -0.04167,-0.20834 0,0.0833 -0.125,-0.83333 -0.08333,-0.33333 -0.166667,-0.58333 -0.08333,-0.29167 -0.125,-0.625 -0.04167,-0.375 -0.04167,-0.16667 0.04167,0.20834 0.04167,-0.0417 l -0.375,-0.29167 q 0.291667,-0.29167 -0.04167,-1.41667 -0.125,-0.45833 -0.333333,-0.45833 l -0.791667,0.45833 q -0.04167,0.125 0,1.04167 0.08333,0.91667 0.166667,1.16667 0,0.16666 0.04167,0.375 0,0 0,0.0417 0,0 0,0 l 0.291667,1.5 q 0.04167,0.29167 0.04167,0.45833 0,0.16667 0.08333,0.41667 0,-0.29167 0.166667,0.70833 0,0.25 0,0.45834 0.04167,0.16666 0.08333,0.33333 0.25,1.375 0.333333,1.875 0.125,0.45833 1,1.20833 0.333333,0.25 0.458333,0.375 0.333333,0.375 0.583333,0.625 0.291666,0.20834 0.666666,0.5 0.375,0.375 0.75,0.58333 0.416666,0.20834 0.666666,0.41667 0.375,0.41667 0.458333,0.41667 -0.124999,-0.0417 0.625,-0.0417 0.375,0 0.625,-0.0833 0.291666,-0.0833 0.666666,-0.0833 1.625,0 2.624999,-0.25 0.5,-0.125 1.291666,-0.125 0.833333,-0.0417 1.416666,-0.0833 -0.125,-0.25 -0.458333,-0.5 0,0 0,0 0,-0.0417 0,-0.0417 -1.124999,-0.66666 -0.291666,-1.08333 l 2.083332,-1 q 1.083333,-0.58333 1.749999,-0.83333 0.375,-0.125 1.333333,-0.625 1,-0.5 1.25,-0.66667 0.375,-0.25 0.833333,-0.45833 0.5,-0.20833 0.874999,-0.45833 l 5.333331,-2.45834 q 0.166667,0 0.333334,0.25 l 6.29167,4.45834 q 0.41666,0.25 0.41666,0.25 0.33334,0.25 1.04167,0.91666 0.70833,0.625 1.16667,0.875 l 2.83333,1.875 q 0.375,0.20833 0.375,0.25 0,0.0417 0.79166,-0.625 l 0.54167,-0.33333 q 0,0 0,0 0,0 0.0417,0 l 0.5,-0.29167 q 0.20833,-0.0417 0.33333,-0.20833 0.625,-0.5 0.625,-0.66667 -0.0417,0 -0.0833,0 0,-0.0417 0,-0.0417 -0.125,0 -1.625,-0.95834 -0.0833,0 -0.125,-0.0417 -0.0417,-0.0417 -0.0833,-0.0833 -0.20833,-0.0833 -0.29166,-0.20833 -0.0417,-0.16667 -0.20834,-0.29167 l -0.58333,-0.20833 q -0.16667,0 -0.16667,-0.0833 0.0833,-0.0833 0.16667,-0.0833 0.125,0 0.0417,0.0417 -0.0417,0 0.16666,0 0.66667,0.125 1.375,0.20833 0.70834,0.0833 1.375,0.25 l 1.66667,0.375 q 0.58333,0.125 0.66667,0.16667 l -0.125,0.41667 -0.45834,0.33333 q -0.125,0.0417 -0.125,0.0417 0,0 -0.0417,0 0,0 0,0 z m -20.208322,19.12499 q 0,-0.125 0,-0.625 0.04167,-0.5 -0.08333,-0.625 -0.08333,-0.0417 -0.749999,0.625 -0.666667,0.625 -0.666667,0.625 -0.708333,0.91667 0.5,0.375 0.875,-0.29167 1,-0.375 z m 0.374999,3.33333 q -0.04167,1.125 -0.624999,1.66667 -0.125,0.125 -0.208334,0.20833 -0.08333,0.0417 -0.166666,0.125 -0.333333,0.29167 -0.708333,0.75 -0.291667,0.29167 -0.666667,-0.5 0,-0.25 0.04167,-0.29167 0.04167,-0.0833 0.04167,-0.45833 -0.166667,0.0833 -0.291667,0.20834 -0.08333,0.12499 -0.208333,0.20833 l -0.791666,0.58333 q 0.04167,0 -0.375,0.29167 0.125,0 -0.75,-0.625 -0.208333,-0.125 -0.5,-0.25 -0.25,-0.125 -0.375,-0.25 -0.208333,-0.20833 -0.374999,-0.33333 l -4.166665,-2.16667 q -0.375,-0.16667 -0.791667,-0.29167 -0.375,-0.16666 -0.749999,-0.41666 -0.208334,-0.125 -0.458334,-0.20834 -0.666666,-0.33333 -0.416666,-0.25 l -1.083333,-0.5 q 0,0 -0.04167,0 0,-0.0417 0,-0.0417 l -0.541666,-0.25 q -0.04167,0 -0.08333,0 0,-0.0417 0,-0.0417 -0.791667,-0.375 -1.541666,-0.79167 -0.75,-0.41666 -1.5,-0.79166 -0.583333,-0.29167 -1.041666,0 l -0.08333,0.0833 q -0.375,0.125 -0.208333,0.0833 -0.25,0.125 -0.833333,0.54167 -0.583334,0.41667 -0.791667,0.54167 -0.291666,0.29166 -0.375,0.33333 l -3.083332,2.29167 q -1.041666,0.75 -1.249999,0.75 -0.166667,0.0417 -0.416667,-0.16667 -0.499999,-0.33333 -0.458333,-0.29167 -0.291666,-0.29166 -0.208333,-1.16666 0.08333,-0.875 -0.08333,-1.79167 -0.125,-0.91667 0,-2.54167 0,-0.33333 0.375,-1.12499 0.374999,-0.83334 0.374999,-1.04167 l -1.041666,-0.41667 q -0.666666,-0.0833 -0.791666,-0.20833 l -0.166667,-0.29167 q -0.04167,-0.16666 -0.04167,-0.625 0,-0.375 -0.04167,-0.66666 0,-0.29167 0,-0.66667 0,0.20833 -0.125,-1.29167 -0.08333,-0.79166 0.125,-1.125 0.25,-0.54166 0.208333,-0.45833 0.25,-0.45833 0.541667,-0.91666 0.333333,-0.45834 0.624999,-0.95834 0.08333,-0.125 0.375,-0.91666 0,-0.125 0.08333,-0.20834 0.08333,-0.125 0.125,-0.25 l 0.583334,-1.20833 q 0,0 0.333333,-1 0.04167,-0.25 0.749999,-0.375 l 1.666666,-0.29167 q 0,0 0,0 0.04167,-0.0417 0.08333,-0.0417 0.166666,-0.0417 0.08333,-0.45834 0,-0.0833 -0.08333,-0.33333 L 71.37989,123.8379 q -0.08333,-0.24999 -0.08333,-0.33333 l -0.125,-0.29166 q -0.04167,0.0833 -0.08333,0.33333 -0.08333,0.29166 -0.25,0.29166 -0.08333,0 -0.5,0.25 l -1.499999,1.33334 q 0,0 -0.04167,0 0,0 0,0 l -0.625,0.58333 q -0.375,0.375 -0.5,0.54167 -0.749999,0.875 -1.416666,1.33333 -0.624999,0.41667 -1.124999,1 -1.375,1.58333 -1.5,1.125 -0.08333,-0.5 -0.666666,-0.5 l -0.208333,2.83333 -1.666666,0.5 q -0.166667,0.0833 -0.291667,0.16667 -0.08333,0.0417 -0.208333,0.0833 l -1.166666,0.33333 q -0.625,0.29167 -1.125,0.41667 -0.458333,0.0833 -0.958333,0.20833 l -2.083332,0.58334 q -0.625,0.20833 -0.625,0.20833 -0.125,0 -0.166666,0.0417 0,0 -0.04167,0 0,0 0,0 l -0.458333,0.16666 q -0.791667,0.33334 -0.875,-0.91666 -0.04167,-0.58334 -0.125,-2.08334 -0.08333,-1.54166 -0.04167,-2.04166 0.458334,-0.33333 0.833333,-0.95833 0.375,-0.625 1.541666,-2.125 l 1.541667,-2.125 q 0.291666,-0.5 0.749999,-1.08333 l 1.208333,-1.54167 q 0.333333,-0.33333 0.375,-0.625 l -3.166665,-2.29167 q -0.958333,-0.54166 -1.833333,-1.83333 -0.125,-0.125 -0.208333,-1.79166 0,-1.54167 -0.08333,-2.08334 0,-0.125 -0.04167,-0.45833 -0.04167,-0.33333 -0.04167,-0.45833 0,-0.29167 0.458333,-0.29167 0.208334,0 2.708332,-0.91667 2.541666,-0.95833 2.999999,-1 0.5,0 0.916666,-0.20833 0.458334,-0.25 0.958333,-0.41667 1.208333,-0.375 1,0.625 -0.166667,0.95834 -0.125,1.70834 0.166667,0.125 0.208333,0.16666 0.208334,0.20834 0.208334,0.20834 0.333333,-0.625 1.166666,-1.66667 0.833333,-1.04167 1.458332,-1.41667 -0.124999,0.0833 0.708333,-0.41666 l 2.541666,-1.25 q 0.25,-0.125 0.541667,-0.20833 0.291666,-0.125 0.583333,-0.29167 0.25,-0.125 0.583333,-0.16667 0.333333,-0.0833 0.583333,-0.20833 0.916666,-0.375 1.083333,-0.45833 0.125,0 0.208333,0 0.125,0 0.25,-0.0417 l 1.208333,-0.33333 q 0.499999,-0.125 0.999999,-0.25 0.541667,-0.125 1.041666,-0.375 l 1.125,-0.41667 q 0.208333,-0.0417 0.375,-0.0833 0.208333,-0.0833 0.458333,-0.16667 2.124999,-0.54167 3.333332,-2.08333 0.08333,-0.125 0.5,-0.70834 0.04167,-0.125 0.04167,-0.20833 0.04167,-0.0833 0.125,-0.20833 0.958333,-1.54167 0.75,-2.958335 -0.166667,-1.416666 -0.04167,-1.833332 0.08333,-0.416667 0.833333,-0.541667 0.666667,-0.166666 1,0.08333 l 0.208333,0.166666 q -0.04167,0.08333 -0.04167,0.5 0,0.166667 0,0.333333 0,0.166667 0,0.291667 0,0.291666 0,0.583333 0,0.291667 0,0.541666 0,1.874999 0.04167,2.208339 0.208333,0 0.375,-0.125 0,0 0,-0.0417 0.04167,-0.0417 0.08333,-0.0833 0,0 0,0 0,0 0,-0.0417 0,0 0,0 0.04167,0 0.04167,-0.0417 l 0.5,-0.58333 q 0,0 0,0 0.04167,-0.04167 0.08333,-0.04167 0.333333,-0.25 0.666666,-0.625 0.375,-0.416666 0.75,-0.791666 l 2.333332,-2.416666 q 0.166667,-0.25 0.375,-0.416666 0.208334,-0.166667 0.416667,-0.416667 0.708333,-0.833333 0.958333,-0.04167 0.208333,0.791666 0.25,1.249999 0.04167,0.416667 0.208333,1.125 l 0.125,0.458333 q 0.125,0.416666 0.125,1.374999 l 0.08333,0.916664 q 0,0 -0.04167,0.91667 0,0.875 0,1.08333 0,1 -0.333333,1.25 0,0 -0.04167,0 0,0 0,0 l -0.04167,0.0417 q -0.125,0.125 -0.375,0.5 l -0.583333,0.66666 q 0,0 0,0.0417 0,0 0,0 -0.08333,0.0833 -0.08333,0.125 l -0.208334,0.33333 q 0,0 -0.04167,0.0417 0,0 0,0 l -0.875,1.16667 q -0.04167,0.0417 -0.04167,0.0417 0,0 0,0 l -1.708333,2.5 q -0.25,0.20833 -0.416667,0.41667 -0.166666,0.29166 -0.333333,0.5 0,0 -0.04167,0.0417 -0.04167,0.0417 -0.04167,0.0417 -0.166667,0.25 -0.166667,0.45833 0.375,0 1.041667,0.0833 l 0.999999,-0.0833 q 0.125,0 0.25,0 0.166667,0 0.291667,0 -0.208334,0.0417 0.999999,-0.375 l 0.291667,-0.0417 q 0.166666,0.41666 0.125,0.91666 0,0.45834 0.08333,0.95834 l 0.166667,1.75 q -0.25,0.25 -0.333334,0.45833 -0.08333,0.16667 -0.291666,0.375 l -1.166666,1.33333 q -0.08333,0.0417 -0.166667,0.125 -0.125,0.125 -0.208333,0.20833 -0.08333,0.0833 -0.166667,0.16667 -0.291666,0.375 -0.291666,0.45833 0.125,0 0.999999,-0.58333 0.125,-0.0417 0.208333,-0.125 0.08333,-0.0833 0.208334,-0.16667 0.291666,-0.125 0.5,-0.29166 0.08333,-0.0833 0.874999,-0.58333 l 2.624999,-1.91667 q 0.208333,-0.0833 0.458333,-0.29167 l 5.458331,-3.95833 q 0.166667,-0.20833 0.749998,-0.54167 0.58333,-0.375 0.75,-0.58333 0.0833,-0.0833 0.16666,-0.125 0.125,-0.0833 0.25,-0.20833 0.16667,-0.125 0.33334,-0.41667 0.16666,-0.33333 0.375,-0.41666 0.0833,0.25 0.0833,0.45833 0,0.16667 0.125,0.41667 0.0833,0.24999 0.0833,0.95833 0,1.16666 0.0833,2.29166 0.0833,1.125 0,2.20834 -0.0833,0.625 -0.0417,1.08333 0.0417,0.45833 0.0417,1.04167 0.16666,0.20833 0.41666,0.33333 0.25,0.125 0.5,0.25 0.125,0.0833 0.20834,0.16666 0.125,0.0417 0.25,0.0833 l 0.375,0.29166 q 0.58333,0.29167 1,0.66667 0.45833,0.375 0.79166,0.375 0,-0.16667 0,-0.33333 0.0417,-0.16667 0.0417,-0.25 l -0.0417,-0.33334 q 0,0 0,0 0,-0.0417 0,-0.0417 0,-0.25 0.41667,-0.25 0.58333,0 1.41666,-0.33334 l 0.54167,-0.16666 q 0.625,-0.125 1.45833,-0.41667 0.875,-0.29166 1.58334,-0.54166 0.66666,-0.125 0.75,-0.375 0,0 0,0 0,-0.0417 0,-0.0417 v -0.875 q 0.875,-0.0833 1.625,0.0833 0.75,0.125 1.74999,0.16667 0,0.125 0.0417,0.29167 h 1.54167 q 1.125,0 1.125,0 0.0417,0 0.91666,0.25 1.125,0.375 1.45834,0.25 0.33333,-0.16667 0.41666,0.58333 0.0833,0.45833 0.0417,0.75 -0.125,0.91666 -0.0833,1 0.0417,0.0833 0.0417,0.54166 -0.0833,0.75 0,0.91667 0.0833,0.125 0.0833,0.41667 -0.0417,0.16666 -0.625,0.75 -0.75,0.70833 -1.45834,1.58333 -0.66666,0.83333 -1.29166,1.41667 -0.20834,0.16666 -0.33334,0.33333 -0.0833,0.16667 -0.29166,0.29167 l -0.875,0.83333 0.0833,1.16666 q 0.0417,0.25 0.0417,1.41667 0.58333,0.45833 0.29166,0.29167 l 1.54167,1.20833 q 0,0.0417 0.5,0.54167 0.54167,0.45833 1,0.75 1.125,0.75 0.91667,0.66666 0,0.0417 0.58333,0.45834 l -0.0833,1.95833 q -0.0833,0.66666 0.0833,1.95833 l 0.0417,2.79167 q -0.0417,0.33333 0,0.54166 0.0417,0.20834 0.0417,0.625 0,0 -0.0833,0.0417 -0.0417,0.0417 -0.0417,0.0417 0,0 -0.0417,0.0417 0,0.0417 0,0.0417 l -0.33334,0.5 q -0.375,0.66667 -0.70833,0.54167 l -0.75,-0.20834 q -0.95833,-0.25 -1.33333,-0.58333 -0.20834,-0.125 -0.45834,-0.125 l -2.74999,-1.08333 q -0.125,0 -0.29167,0 -0.125,0 -0.25,-0.0417 0.20833,0.0417 -0.45833,-0.125 -0.25,-0.0833 -0.54167,-0.125 -0.29167,-0.0417 -0.45833,-0.125 -0.58334,-0.20833 -0.5,-0.20833 -0.375,-0.125 -0.75,-0.20834 -0.33334,-0.0833 -0.70834,-0.20833 l -1.875,-0.58333 q -0.16666,-0.0417 -1.625,-0.25 -1.45833,-0.20834 -1.58333,-0.16667 0,0.0417 0,0.0417 0,0 0,0 l -0.625,0.66666 q -0.5,0.33334 -0.41666,0.29167 l -3.5,2.75 q -0.0417,0 -0.0417,0 0,0 0,0 l -0.29167,0.20833 q 0,0 -0.0417,0.0417 0,0 0,0 l -0.0417,0.0417 q -0.0833,0.0833 -0.20833,0.16666 l -1.624998,1.375 q -0.374999,0.41667 -0.833333,0.75 -0.416666,0.29167 -0.791666,0.66667 -0.125,0.125 -0.375,0.25 -0.499999,0.375 -0.999999,1 -0.5,0.58333 -1.041666,1.04166 z m 2.583333,-17.83332 q -0.04167,0.0833 -0.125,0.125 -0.08333,0.0417 -0.08333,0.0417 0,0 -0.04167,0 -0.125,0 -0.208333,0.0417 -0.08333,0 -0.166667,0 -0.208333,0.0417 -0.75,0.0417 -0.583333,0 -3.124998,0.125 -2.541666,0.0833 -2.749999,0.16666 l -0.541667,0.0833 q -0.749999,0.125 -0.624999,0.125 0.166666,0 -0.458334,0.16666 l -1.958332,0.45834 q -0.708333,0.25 -1.166666,0.33333 -0.416667,0.0833 -1,0.33333 l -0.291666,0.16667 q -0.08333,0.0417 -0.208334,0.0417 -0.208333,0 -1.291666,0.33333 l -2.374999,0.875 q -0.625,0.20833 -0.666666,0.20833 -0.25,0.125 -1.5,0.58333 -1.208332,0.45834 -1.374999,0.33334 l 0.833333,-0.45834 q 0.08333,0 0.125,-0.0417 0.04167,-0.0417 0.166667,-0.0833 l 2.999998,-1.20833 q 0.333333,-0.16666 0.625,-0.20833 0.5,-0.125 0.916666,-0.33333 0.458333,-0.20834 0.875,-0.375 0.541666,-0.125 0.666666,-0.5 l 0.5,-2.16667 q 0,-0.0417 0,-0.20833 0.04167,-0.16667 0.04167,-0.29167 0,-0.16667 -0.04167,-0.29167 -0.125,-0.5 -0.875,-0.20833 -0.708333,0.29167 -1.208332,0 0.04167,-0.0833 0.791666,-0.25 l 0.916666,-0.125 q 1,0 1.708333,-0.16667 0.708333,-0.20833 1.958332,-0.20833 0.541667,0 0.875,-0.0833 0.375,-0.0833 0.958333,-0.0833 l 2.916665,0.16667 q 0.333334,0.0833 0.416667,0.0833 l 2.333332,0.0833 q 0.208334,0 0.458333,0 0.291667,0 0.541667,0 0.541666,0.0833 0.625,0.29166 -0.375,0.25 -1.958333,0.20834 -1.541666,-0.0833 -2.083332,-0.0833 -0.416667,1.08334 -0.333334,1.875 0.291667,0.0417 0.583334,0 0.333333,-0.0417 0.666666,-0.0417 h 2.583332 q 0.375,0 0.541667,0.0833 0.208333,0.0417 0.583333,0.0417 z"
         id="path985"
         style="font-size:85.3333px;font-family:diel;-inkscape-font-specification:diel;text-align:center;white-space:pre;shape-inside:url(#rect236-7);stroke-width:3.77953;stroke-linecap:round;stroke-linejoin:round"
         transform="matrix(0.95143402,0,0,0.95143402,-15.683172,-68.035445)" />
    </g>
    <g
       id="g4375">
      <path
         style="fill:#48fabd;fill-opacity:1;stroke-width:1.46055;stroke-linecap:round;stroke-linejoin:round"
         d="m 228.11741,296.61101 c -0.8906,-0.40434 -2.36873,-1.40792 -3.28471,-2.23016 -3.37186,-3.02684 -12.91653,-10.17222 -16.92968,-12.67401 -0.95643,-0.59624 -2.86929,-2.07466 -4.2508,-3.28538 -2.44887,-2.14614 -3.60579,-3.00616 -15.65069,-11.63437 -8.1645,-5.84853 -13.16476,-9.62334 -18.36499,-13.86417 -2.47592,-2.01914 -5.29158,-4.21789 -6.25701,-4.88612 -1.64473,-1.13842 -1.78182,-1.36972 -2.17578,-3.67115 -0.84833,-4.95567 -0.92685,-5.7409 -0.57407,-5.7409 0.30569,0 2.89736,1.9987 8.66107,6.67941 0.72662,0.59009 2.98204,2.4584 5.01206,4.15181 6.17364,5.14994 11.57331,8.24246 11.57331,6.62832 0,-0.18746 -0.97584,-1.10587 -2.16854,-2.04093 -4.06419,-3.18626 -5.36721,-4.31212 -11.16353,-9.64571 -3.1881,-2.93359 -7.18294,-6.39152 -8.87741,-7.68429 -4.85202,-3.70176 -4.92825,-4.58149 -0.53924,-6.22287 2.38234,-0.89094 6.18643,-3.90326 5.63672,-4.46352 -0.42697,-0.43516 -2.34163,0.19149 -8.97248,2.9366 -3.18811,1.31984 -7.54,3.05353 -9.67088,3.85265 -2.13087,0.79911 -5.9566,2.32403 -8.50161,3.38871 -2.54501,1.06469 -11.32231,4.59136 -19.50511,7.83706 -8.1828,3.2457 -17.31237,7.02039 -20.28793,8.3882 -2.975565,1.36782 -5.602416,2.56891 -5.837446,2.6691 -0.284665,0.12136 -0.496583,-0.9279 -0.634769,-3.14283 -0.248468,-3.98263 -0.598491,-4.48289 -3.909876,-5.58807 -1.303679,-0.4351 -2.892016,-1.22125 -3.529637,-1.74699 l -1.15931,-0.95589 2.053433,-1.99163 c 2.029674,-1.9686 2.075602,-1.98901 3.970182,-1.76462 1.054215,0.12485 2.072956,0.32355 2.263867,0.44154 0.190911,0.11799 0.250485,1.49218 0.132382,3.05376 -0.21171,2.79928 -0.200797,2.84272 0.775513,3.08776 0.544632,0.1367 2.216064,-0.009 3.714292,-0.32448 2.942319,-0.61894 21.181349,-6.51074 22.941969,-7.41101 0.58978,-0.30157 2.02561,-0.72454 3.19073,-0.93992 1.16513,-0.21539 2.85629,-0.72655 3.75814,-1.13593 0.90185,-0.40937 2.12331,-0.74813 2.71435,-0.7528 0.59104,-0.005 2.93865,-0.78878 5.2169,-1.74248 2.33109,-0.97582 5.52156,-1.97336 7.29678,-2.28143 1.73498,-0.30109 3.59624,-0.78155 4.13614,-1.06768 0.5399,-0.28612 3.14013,-1.58593 5.77829,-2.88845 2.63816,-1.30251 4.9172,-2.56326 5.06454,-2.80166 0.43579,-0.70512 -1.26111,-0.50522 -4.50457,0.53067 -2.28813,0.73078 -3.21956,0.86617 -3.97715,0.57814 -1.61681,-0.61471 -5.50886,-3.39036 -10.03819,-7.15883 -2.33795,-1.9452 -6.94569,-5.52033 -10.23945,-7.94474 -3.29375,-2.4244 -7.87957,-5.84265 -10.19071,-7.59611 -2.31114,-1.75346 -4.39841,-3.18544 -4.63838,-3.18219 -1.45907,0.0198 -2.17526,1.70279 -2.17526,5.11172 0,1.74946 -0.19681,3.11898 -0.50973,3.54691 -0.34009,0.46511 -1.51542,0.87198 -3.53177,1.22261 -1.66213,0.28904 -3.08887,0.59233 -3.17052,0.67399 -0.34442,0.34442 0.38931,1.40857 1.13421,1.645 0.44366,0.14081 1.94918,0.27785 3.34562,0.30454 1.84244,0.0352 3.06904,0.30921 4.47116,0.9988 2.0816,1.02379 6.3762,4.93168 6.3762,5.80207 0,0.37378 -0.25794,0.29651 -0.86948,-0.2605 -1.54322,-1.4056 -2.74275,-1.79021 -5.58327,-1.79021 -3.27108,0 -4.20603,0.41457 -10.97944,4.8684 -3.65163,2.40113 -5.262756,3.80106 -9.00673,7.82612 -4.254496,4.57391 -8.363938,8.4972 -12.391008,11.8297 -1.912136,1.58234 -6.586133,3.65469 -9.730206,4.31417 -2.632283,0.55212 -3.431886,0.14818 -3.376903,-1.70596 0.03401,-1.14683 1.769174,-9.72599 2.843277,-14.05798 0.96973,-3.91105 2.367089,-13.61901 2.136916,-14.84594 l -0.249701,-1.33102 -0.753816,1.6837 c -0.414598,0.92604 -0.939549,2.42132 -1.166557,3.32285 -0.227008,0.90153 -0.786966,1.97352 -1.244351,2.3822 -1.178086,1.05265 -8.561595,3.70376 -10.149001,3.64408 -0.844923,-0.0318 -4.920801,-1.81892 -11.219261,-4.91932 l -9.892241,-4.86942 0.256733,-2.38771 c 0.141204,-1.31323 0.76473,-4.47446 1.385613,-7.02494 0.620884,-2.55049 1.307202,-6.42109 1.525152,-8.60135 0.432382,-4.32532 1.145136,-6.54226 2.222161,-6.91178 1.911013,-0.65565 12.349104,-5.46646 15.571532,-7.17676 4.023236,-2.13533 5.023679,-2.86176 5.023679,-3.64771 0,-0.7971 -1.371488,-0.62109 -3.477932,0.44633 -2.481993,1.25772 -3.659334,1.29193 -3.324549,0.0966 0.133938,-0.47822 0.351753,-1.60855 0.484034,-2.51184 l 0.240509,-1.64236 7.579602,-0.003 c 4.168781,-0.002 8.516052,-0.1158 9.660601,-0.25323 1.688615,-0.20275 2.0486,-0.14747 1.909158,0.29319 -0.155031,0.48993 -1.100989,1.0255 -5.316604,3.0101 -0.729545,0.34345 -1.404247,0.86612 -1.499337,1.16149 -0.290679,0.9029 3.261577,0.31438 6.368486,-1.0551 4.122632,-1.8172 4.147325,-1.80592 3.884474,1.77398 -0.256145,3.48861 -0.03385,3.23383 -7.04074,8.06941 -3.74099,2.58172 -4.085708,2.90954 -2.874235,2.73335 1.825563,-0.26551 10.631283,-3.4631 14.274122,-5.18331 4.40751,-2.0813 13.604913,-6.53871 22.413333,-10.86235 4.35708,-2.13868 9.05229,-4.39468 10.4338,-5.01333 2.81776,-1.2618 4.59835,-2.56463 4.13735,-3.02722 -0.39814,-0.39951 -4.60669,0.69296 -10.9,2.82948 -7.16322,2.43185 -6.93493,2.39574 -6.5867,1.042 0.22818,-0.88704 0.48432,-3.52444 0.58577,-6.03146 0.006,-0.15168 2.23763,-1.40793 4.95888,-2.79166 4.45108,-2.26334 8.68027,-5.18327 7.56762,-5.22486 -1.80623,-0.0675 -5.63329,1.24785 -11.7823,4.04961 -3.95514,1.80225 -7.63094,3.27672 -8.168457,3.27672 -0.61603,0 -1.211301,0.35713 -1.610309,0.96609 -0.396017,0.6044 -0.994982,0.9661 -1.599841,0.9661 -0.827875,0 -2.945101,0.97707 -7.473912,3.44911 -1.75277,0.95675 -11.889672,0.20971 -11.536378,-0.85017 0.160799,-0.48239 9.988779,-6.2582 11.634088,-6.83723 1.071976,-0.37726 1.098632,-0.3562 0.846065,0.66846 -0.808237,3.27896 -0.749344,3.51287 0.740482,2.94117 0.347164,-0.13322 1.437565,-1.91566 2.423114,-3.96098 1.966535,-4.08117 2.375775,-5.13175 2.608812,-6.69719 0.08566,-0.57544 0.351677,-1.70577 0.591148,-2.51184 0.523228,-1.76122 0.360538,-5.21187 -0.255273,-5.41435 -0.504481,-0.16588 -2.005267,2.09892 -2.42103,3.65351 -0.242389,0.90633 -0.627778,1.13583 -2.878661,1.71423 -1.429341,0.36729 -4.113535,0.83412 -5.964869,1.0374 -1.851338,0.20328 -4.061652,0.55561 -4.911813,0.78296 -0.850161,0.22735 -2.333063,0.41752 -3.295338,0.42259 -2.098693,0.0111 -3.286831,0.76142 -4.032856,2.5469 -0.305186,0.73042 -0.83324,1.32669 -1.174902,1.32669 -0.341318,0 -1.69789,-0.73157 -3.014604,-1.62571 -2.749509,-1.8671 -17.199431,-13.39076 -17.995395,-14.35113 -0.469911,-0.56697 -0.369825,-0.70693 0.878492,-1.22851 0.774852,-0.32375 5.013123,-1.6179 9.418378,-2.87588 4.405256,-1.25798 9.544033,-2.99741 11.419506,-3.8654 4.835798,-2.23808 11.854305,-4.18286 11.854305,-3.28476 0,0.1131 -0.260844,0.82992 -0.579655,1.59294 -0.31881,0.76303 -0.579655,1.52137 -0.579655,1.68522 0,0.71543 1.595567,0.70685 7.84163,-0.0422 9.163218,-1.09887 10.825378,-0.8331 14.260508,2.28022 0.86614,0.785 2.62642,2.12286 3.91173,2.97302 2.73591,1.80966 3.15183,2.51184 1.48782,2.51184 -0.89055,0 -1.44264,-0.35807 -2.38329,-1.54575 -0.92672,-1.17007 -1.49812,-1.54574 -2.3511,-1.54574 -0.99554,0 -1.12683,0.13568 -1.12683,1.16455 0,0.6405 0.18419,1.46651 0.40932,1.83558 0.3141,0.5149 -0.082,2.37918 -1.70246,8.01332 -1.16148,4.03826 -2.23738,7.95093 -2.39089,8.69483 -0.1535,0.74389 -0.51772,1.69554 -0.80937,2.11478 -0.608754,0.87504 -0.715553,2.90889 -0.15275,2.90889 0.68452,0 1.55715,-1.77215 3.0147,-6.12232 l 1.43823,-4.29249 3.07568,-1.94167 c 3.35818,-2.12002 4.36697,-2.33894 5.41937,-1.17605 0.88335,0.97609 0.44422,1.56071 -2.04191,2.71841 -3.24675,1.5119 -4.27001,2.99162 -1.74063,2.51711 0.78529,-0.14732 2.30688,-0.71894 3.38132,-1.27025 1.19563,-0.6135 2.62818,-1.01352 3.69249,-1.03107 1.51592,-0.025 1.7553,-0.14395 1.86629,-0.9274 0.17577,-1.24079 3.28731,-3.165 12.43187,-7.68802 4.14454,-2.04994 9.72384,-4.99963 12.39845,-6.55487 2.67461,-1.55523 5.06468,-2.8277 5.31126,-2.8277 0.24659,0 1.2364,0.77691 2.19959,1.72646 1.7603,1.73538 4.22752,2.83541 5.37331,2.39573 0.77811,-0.29859 0.7722,-2.25038 -0.0131,-4.31541 -1.15863,-3.04691 -2.45414,-7.06358 -4.42468,-13.71851 -1.10134,-3.71945 -2.76405,-9.05585 -3.69491,-11.85866 -2.55278,-7.68636 -2.93419,-6.87002 4.97355,-10.644941 3.66632,-1.750192 8.14416,-3.914198 9.95075,-4.808902 1.80659,-0.894704 3.4156,-1.496952 3.57556,-1.338328 0.46868,0.464745 1.59284,9.380901 2.22375,17.637381 0.66837,8.74671 1.54499,18.70288 1.93943,22.0269 0.35201,2.96645 1.075,10.46194 1.91963,19.9015 0.21871,2.44421 0.57006,7.37185 0.78079,10.9503 0.21073,3.57845 0.47652,6.88248 0.59065,7.3423 0.18066,0.72782 -0.0881,0.94283 -2.07697,1.66126 l -2.28449,0.82524 -1.42404,-4.68961 c -0.78322,-2.57928 -1.77694,-5.64603 -2.20826,-6.81501 -1.36766,-3.70661 -1.36698,-3.71443 0.4022,-4.617 1.02523,-0.52303 1.58543,-1.07108 1.58543,-1.55103 0,-1.27049 -0.71915,-1.28095 -3.27634,-0.0476 -1.35933,0.6556 -2.63905,1.19199 -2.84382,1.19199 -0.20477,0 -1.91122,0.71722 -3.79211,1.59381 -5.32368,2.4811 -15.35111,6.81352 -20.03658,8.65694 -5.48724,2.15886 -7.93593,3.19388 -17.7761,7.51366 -17.88782,7.85266 -26.01822,11.34168 -28.596326,12.27161 -1.487782,0.53665 -3.139799,1.27971 -3.67115,1.65126 -1.487751,1.0403 -5.704121,3.09267 -8.496552,4.1358 -1.384293,0.51712 -3.386381,1.42367 -4.449082,2.01458 -1.062702,0.5909 -4.801478,2.16243 -8.308392,3.49228 -3.506915,1.32984 -6.680527,2.57981 -7.052473,2.7777 -1.01866,0.54196 -0.874628,2.20027 0.214853,2.47372 1.154272,0.2897 9.372562,-1.09255 13.704063,-2.30492 5.43548,-1.52138 15.016354,-3.61011 19.60448,-4.274 2.337943,-0.33829 6.337565,-1.11572 8.888049,-1.72762 2.55048,-0.6119 5.41978,-1.22534 6.37621,-1.36321 0.95643,-0.13787 4.05607,-0.68163 6.88808,-1.20837 2.83202,-0.52674 5.52742,-0.84497 5.98977,-0.7072 1.12373,0.33485 16.35735,8.35725 19.793,10.42348 1.4971,0.90037 4.19249,2.3741 5.98977,3.27495 1.79727,0.90086 4.48505,2.36905 5.97283,3.26266 4.68534,2.81416 11.31745,6.20234 19.70828,10.06844 7.43963,3.42784 9.58673,4.53618 15.90322,8.20933 2.15764,1.25471 4.3706,1.6202 5.49552,0.90764 0.43193,-0.2736 0.33852,-0.68757 -0.5001,-2.21609 -1.10652,-2.01685 -6.48675,-8.67569 -10.57354,-13.08632 -4.21837,-4.55265 -11.55607,-13.91822 -12.03023,-15.35495 -0.49033,-1.48571 -0.0227,-3.16054 0.99114,-3.54958 0.29948,-0.11492 1.50645,0.66072 2.74932,1.76681 3.49932,3.11423 13.99054,13.52272 15.11114,14.99199 1.13885,1.4932 25.96712,22.26182 33.47676,28.003 1.48778,1.13742 3.1398,2.54695 3.67115,3.1323 0.53135,0.58535 1.92252,1.67128 3.09149,2.41319 1.16897,0.74191 2.82905,2.02396 3.68906,2.849 0.86,0.82505 3.46845,2.76989 5.79655,4.32189 8.5222,5.68122 8.67693,5.80031 8.67693,6.67871 0,0.92984 -1.76228,3.66858 -4.82356,7.49627 -1.1049,1.38151 -2.68221,3.51174 -3.50513,4.73385 -0.82292,1.22211 -1.63322,2.22201 -1.80067,2.22201 -1.27828,0 2.16566,-7.39633 6.07177,-13.03992 0.43069,-0.62227 0.72346,-0.35002 -7.26721,-6.7577 -7.50979,-6.02207 -10.6507,-8.26839 -13.40716,-9.58857 -1.38151,-0.66165 -3.34446,-1.73342 -4.36211,-2.38169 -1.01765,-0.64827 -1.93304,-1.09591 -2.03421,-0.99474 -0.31085,0.31086 1.39394,2.23411 1.98034,2.23411 0.30338,0 0.55161,0.32336 0.55161,0.71857 0,0.71314 2.50695,2.90406 5.67332,4.95814 0.88866,0.57648 1.80421,1.4618 2.03457,1.96738 0.79482,1.74444 1.21378,6.49899 1.57388,17.86074 0.36227,11.43055 0.82942,18.49792 1.53261,23.18621 0.53759,3.58422 0.49936,6.18488 -0.0908,6.17451 -0.26567,-0.005 -1.21173,-0.33931 -2.10234,-0.74366 z"
         id="path2690"
         transform="scale(0.26458333)" />
      <path
         style="fill:#3692e3;fill-opacity:1;stroke-width:1.46055;stroke-linecap:round;stroke-linejoin:round"
         d="m 60.148968,252.24665 c -3.44584,-3.5521 -5.983927,-6.60144 -6.821095,-8.19506 -0.43509,-0.82823 -0.408483,-1.00081 0.208521,-1.35253 0.388985,-0.22174 1.437771,-1.05903 2.330635,-1.86065 0.892864,-0.80161 2.469349,-1.74068 3.5033,-2.08682 1.033951,-0.34613 3.046332,-1.37747 4.471958,-2.29186 3.187249,-2.0443 4.956972,-2.97397 5.19952,-2.73142 0.19103,0.19103 -0.513413,4.1058 -1.819841,10.11334 -0.41598,1.91286 -1.103001,5.18876 -1.526713,7.27978 -0.423712,2.09101 -0.868379,3.9604 -0.988149,4.15419 -0.499122,0.8076 -1.448076,0.177 -4.558136,-3.02897 z"
         id="path3487"
         transform="scale(0.26458333)" />
      <path
         style="fill:#3692e3;fill-opacity:1;stroke-width:1.46055;stroke-linecap:round;stroke-linejoin:round"
         d="m 194.12648,275.54922 c -0.66954,-0.29131 -5.79949,-3.21174 -11.39989,-6.48985 -5.60039,-3.27811 -10.50969,-6.07946 -10.90955,-6.22521 -0.39986,-0.14576 -3.44305,-1.8876 -6.76265,-3.87076 -3.31959,-1.98316 -8.1773,-4.71873 -10.79489,-6.07904 l -4.75926,-2.47328 0.25478,-1.73897 c 0.14012,-0.95643 0.32581,-1.81178 0.41264,-1.90078 0.37554,-0.38492 6.76843,3.28097 14.92447,8.55817 4.83781,3.13021 9.71087,6.15283 10.82903,6.71693 1.11815,0.5641 4.29366,2.62158 7.05669,4.57218 2.76302,1.9506 6.03335,4.14407 7.26741,4.87438 2.33089,1.37941 6.16066,4.57986 5.485,4.58369 -0.21254,10e-4 -0.93424,-0.23615 -1.60378,-0.52746 z"
         id="path3558"
         transform="scale(0.26458333)" />
      <path
         style="fill:#3692e3;fill-opacity:1;stroke-width:1.46055;stroke-linecap:round;stroke-linejoin:round"
         d="m 36.7115,238.26358 c 0,-0.19865 0.260317,-1.63329 0.578482,-3.1881 1.041548,-5.08985 0.812899,-4.68837 2.538291,-4.45695 0.842639,0.11303 2.181573,0.54308 2.975408,0.95568 0.793836,0.4126 2.356295,0.98336 3.472131,1.26836 3.190986,0.81502 2.925847,1.07237 -3.913588,3.7986 -5.227673,2.08379 -5.650724,2.20525 -5.650724,1.62241 z"
         id="path3560"
         transform="scale(0.26458333)" />
      <path
         style="fill:#60e336;fill-opacity:1;stroke-width:1.46055;stroke-linecap:round;stroke-linejoin:round"
         d="m 59.272796,234.23126 c -9.831053,-3.56965 -29.789872,-9.87995 -36.817146,-11.64033 -3.058563,-0.7662 -6.160717,-1.70075 -6.893676,-2.07678 l -1.332654,-0.68369 0.943101,-1.13326 c 2.147933,-2.58102 2.356161,-4.3666 0.880618,-7.55141 -0.522601,-1.12798 -0.896411,-2.10464 -0.830689,-2.17036 0.291701,-0.2917 7.504198,1.60089 8.580841,2.25165 1.440448,0.87065 1.701641,0.67512 1.701641,-1.27385 0,-1.62646 -2.567058,-13.60383 -3.15417,-14.71672 -0.199328,-0.37783 -1.476618,-5.24694 -2.838423,-10.82023 -1.361805,-5.5733 -2.592748,-10.53249 -2.735429,-11.02044 -0.217301,-0.74313 0.216407,-1.35534 2.671319,-3.77077 3.171616,-3.1206 4.334231,-3.77223 6.200996,-3.47557 6.580367,1.04573 8.763592,1.43051 9.794951,1.7263 0.663536,0.1903 3.17649,0.55138 5.584341,0.80241 2.407852,0.25102 6.219851,0.78878 8.471109,1.19503 2.251257,0.40624 4.902296,0.73863 5.891199,0.73863 0.9889,0 4.363862,0.25879 7.499909,0.5751 3.136047,0.3163 7.701717,0.76235 10.14593,0.9912 7.540364,0.70601 10.433795,1.18341 10.433795,1.72152 0,0.27162 -0.29142,0.60569 -0.647603,0.74236 -1.38725,0.53234 -26.855904,-0.81745 -37.416427,-1.983 -7.501652,-0.82795 -16.520861,-0.89803 -18.313293,-0.14229 l -1.310073,0.55236 0.231855,3.69844 c 0.690885,11.02067 1.166686,15.83295 2.065927,20.89489 1.108482,6.23979 1.26776,10.0584 0.539975,12.94563 -0.595679,2.36315 -0.11029,4.05759 1.162338,4.05759 0.450682,0 1.280995,0.2543 1.845139,0.5651 1.022247,0.5632 7.480278,3.47476 12.618822,5.68911 1.487782,0.64113 3.052851,1.35679 3.477931,1.59035 0.425081,0.23356 4.635048,2.36609 9.355486,4.73896 l 8.582608,4.31431 -0.853871,0.77728 c -1.883296,1.71436 -4.015887,2.44257 -5.536377,1.89048 z"
         id="path3562"
         transform="scale(0.26458333)" />
      <path
         style="fill:#3692e3;fill-opacity:1;stroke-width:1.46055;stroke-linecap:round;stroke-linejoin:round"
         d="m 50.430008,231.03569 c -8.817107,-2.97175 -19.374314,-6.22401 -30.552294,-9.41195 -2.351024,-0.67051 -4.498629,-1.35757 -4.772455,-1.52681 -0.377422,-0.23325 -0.208066,-0.70775 0.700048,-1.96136 1.451301,-2.00347 1.599315,-4.40158 0.438773,-7.10901 -0.432604,-1.00923 -0.584965,-1.77101 -0.354213,-1.77101 0.869489,0 6.720452,1.62777 7.732923,2.15133 0.588933,0.30455 1.25332,0.55373 1.476415,0.55373 1.145067,0 -0.260413,-8.7202 -2.910192,-18.05607 -2.320671,-8.17634 -5.225155,-20.62769 -4.986875,-21.37844 0.333405,-1.05047 5.535521,-5.74829 6.684747,-6.03672 1.009144,-0.25328 3.709309,0.0911 11.08565,1.41379 6.39128,1.14608 17.531204,2.63395 23.18621,3.09681 10.980283,0.89873 22.956668,2.15832 24.248912,2.55032 0.371946,0.11283 0.676265,0.39503 0.676265,0.6271 0,0.80736 -20.430267,-0.13852 -39.22334,-1.81597 -3.613184,-0.3225 -8.256359,-0.58725 -10.318165,-0.58831 -3.65355,-0.002 -7.465159,0.5438 -7.821089,1.1197 -0.335376,0.54265 0.953589,16.09052 1.893292,22.83744 1.439581,10.33597 1.477169,10.87904 0.970392,14.02053 -0.645087,3.99888 -0.43615,4.60984 1.833446,5.36125 3.162339,1.04699 17.695095,7.77959 26.19454,12.13518 4.463346,2.28726 8.18343,4.21363 8.26685,4.28082 0.27587,0.2222 -0.851595,1.34274 -1.862498,1.85106 -2.138035,1.07509 -2.823207,0.94754 -12.587342,-2.34341 z"
         id="path4290"
         transform="scale(0.26458333)" />
      <path
         d="m 89.379883,111.58791 q 0.249999,0.41667 0.666666,0.54167 0.375,0.125 0.333333,0.16666 0,0.0417 0.375,0.20834 l 3.999998,2.16666 q 0.125,0.0833 0.166667,0.125 0.04167,0 0.166667,0.0417 0.708333,0.5 1.416666,0.875 0.708333,0.33333 1.458332,0.70833 0.708333,0.45833 0.666667,-0.0417 0,-0.54166 0.04167,-1.29166 0,-0.5 0.04167,-1.16667 0.08333,-0.66666 -0.04167,-1.29166 -0.833333,0.20833 -0.958333,-0.41667 -0.124999,-0.625 -0.833333,-1.83333 -0.999999,-1.58334 -1.166666,-1.5 -0.125,0.0417 -0.916666,0.375 -0.75,0.33333 -1.458333,0.45833 l -3.833331,1.79167 q -0.08333,0.0417 -0.08333,0.0417 0,0.0417 -0.04167,0.0417 0,0 0,0 z m 14.041657,1.45833 q -0.0417,0 -0.0417,0 0,0 0.0417,0 z m -19.333322,2.70833 q 0.08333,-0.37499 0.08333,-1.45833 0.04167,-1.08333 0.708333,-0.91666 l 1.666666,1.25 q 0.333334,0.20833 0.04167,0.0833 -0.25,-0.16667 0.04167,0 l 3.791665,2.79166 q 0.5,0.375 1.458333,1.20834 0.958332,0.79166 0.958332,0.79166 0.291667,0.16667 0.916667,0.625 0.666666,0.45834 0.916666,0.45834 0.333333,0 1.125,-0.29167 0.791666,-0.29167 1.041666,-0.16667 l -1.999999,1.04167 q -0.75,0.25 -0.75,0.33333 0,0.0833 -0.291667,0.20834 -0.416666,0.20833 -1.291666,0.29166 -0.874999,0.0833 -1.374999,0.41667 0.04167,-0.0417 -1.041666,0.41667 l -0.416667,0.16666 q -0.25,0.125 -0.541666,0.125 -0.291667,0 -0.541667,0.0833 -0.583333,0.29166 -0.458333,0.25 -0.08333,0.0417 -1.249999,0.25 -0.375,0.12499 -0.541667,0.24999 -0.125,0.0833 -0.5,0.16667 -0.791666,0.25 -3.708331,1.25 -2.916666,0.95833 -3.166666,0.58333 -0.125,-0.25 -0.04167,-0.70833 0.08333,-0.5 0.08333,-0.875 -0.208333,-0.0833 -0.75,-0.20833 -0.5,-0.0833 -0.791666,0.16666 l -0.791666,0.70834 q -0.125,0.16666 -0.166667,0.33333 0.5,0.5 1.249999,0.70833 0.791667,0.20834 1,0.54167 0.166667,0.33333 0.166667,1.95833 0.333333,-0.0417 0.999999,-0.41666 0.166667,-0.0833 0.291667,-0.125 0.749999,-0.375 1.958332,-0.875 1.208333,-0.54167 1.833333,-0.75 l 7.749997,-3.08333 q 0.08333,-0.0417 0.624999,-0.29167 l 1.916666,-0.75 q 0.5,-0.125 1,-0.375 0.5,-0.25 0.999999,-0.375 0.25,-0.0833 0.291667,-0.125 0.08333,-0.0417 0.333333,-0.16667 0.125,-0.0417 0.25,-0.0833 0.166667,-0.0417 0.416667,-0.16667 0.124999,-0.0417 0.874999,-0.375 0.75,-0.33333 0.875,-0.25 0.04167,0.0833 -0.416667,0.54167 -0.583333,0.45833 -1.166666,0.66667 -0.583333,0.16666 -0.999999,0.54166 0,0.33334 0.333333,0.66667 l 0.999999,0.79167 q 0.708333,0.45833 2.583332,2.24999 1.875,1.79167 2.58334,2.20834 0.79166,0.66666 0.83333,0.75 -0.29167,0.16666 -0.5,-0.0417 l -1.375,-0.875 q -0.41667,-0.25 -0.66667,-0.5 -0.25,-0.29167 -0.625,-0.54167 0.125,0.0833 -0.79166,-0.70833 -0.125,-0.0833 -0.250006,-0.125 -0.08333,-0.0417 -0.208333,-0.16667 l -0.833333,-0.70833 q -0.25,-0.16667 -0.833333,-0.66667 -1.125,-0.91666 -1.083333,-0.625 0.04167,0.29167 0.166667,1.08334 0.208333,1.125 0.208333,1.25 0,0.0833 0.958333,0.70833 0.625,0.45833 1.249999,1 0.625006,0.54167 1.250006,1.04167 l 1.33333,1 q 0.125,0.125 0.16667,0.16666 0.0833,0.0417 0.20833,0.125 0.29167,0.25 0.95833,0.66667 l 2.625,1.875 q 0.75,0.58333 1.5,1.125 0.79167,0.5 1.5,1.16666 0.5,0.5 1.04167,0.83334 0.58333,0.33333 1.16666,0.75 0.29167,0.29166 0.45834,0.375 l 1.75,1.25 q 0.625,0.45833 1.5,1.25 0.87499,0.79166 1.62499,0.79166 0,-0.25 0,-0.58333 0,-0.375 0,-0.66667 -0.0417,-0.66666 -0.20833,-1.54166 -0.125,-0.91667 -0.125,-1.66667 -0.0833,-1.125 -0.125,-2.20833 -0.0417,-1.125 -0.0417,-2.375 0,-0.79167 -0.125,-2.29167 -0.0833,-1.5 -0.33333,-2 -0.20833,-0.29166 -0.58333,-0.45833 -0.375,-0.20833 -0.58333,-0.5 -0.16667,-0.16667 -0.54167,-0.375 -0.33333,-0.20833 -0.41667,-0.33333 -0.0417,-0.0417 0,-0.375 -0.41666,0.0417 -0.70833,-0.5 0.20833,0.0417 0.54167,0.29166 0.5,0.375 1.54166,0.79167 0.16667,0.0833 1,0.66667 l 0.91667,0.66666 q 0.375,0.375 0.33333,0.33334 0,-0.0417 0.54167,0.45833 l 1.83333,1.41667 q 0.625,0.375 0.83333,0.75 -0.29166,0.125 -0.66666,0.83333 -0.125,0.16667 -0.16667,0.29167 -0.0417,0.125 -0.125,0.25 l -0.25,0.41666 q -0.70833,1.58333 -0.70833,1.5 0.0833,0.95833 0.58333,0 0.41667,-0.66667 1.375,-1.79166 0.0833,-0.125 0.125,-0.20834 0.0833,-0.125 0.20833,-0.25 0.20834,-0.375 0.5,-0.70833 0.29167,-0.375 0.29167,-0.95833 l -0.79167,-0.45834 q -0.125,-0.0833 -0.66666,-0.54166 -0.625,-0.45834 -1.5,-0.95834 -0.875,-0.5 -1.33334,-1.125 -0.20833,-0.20833 -0.70833,-0.45833 -0.875,-0.54167 -1,-0.79167 -0.25,-0.33333 -0.79166,-0.66666 -0.5,-0.33334 -0.875,-0.70833 -0.33334,-0.29167 -0.70834,-0.54167 -0.33333,-0.25 -0.66666,-0.54167 l -5.95833,-4.95833 q -0.66667,-0.5 -1.25,-1.16667 -0.58334,-0.70833 -1.16667,-1.29166 -0.16667,-0.125 -0.33333,-0.25 -0.16667,-0.16667 -0.29167,-0.33333 -0.45833,-0.41667 -0.91667,-0.91667 -0.45833,-0.54167 -0.95833,-0.91667 -0.25,-0.16666 -0.75,-0.66666 -0.45833,-0.5 -0.75,-0.29167 -0.750002,0.66667 0.375,2 0.875,1.08333 1.70833,2.125 0.875,1.04166 1.83334,2.04166 l 1.70833,2.08334 q 0.66667,0.91666 0.66667,1.16666 -0.625,0.41667 -1.25,-0.0417 -0.5,-0.375 -1.04167,-0.58334 -0.54167,-0.25 -1,-0.625 l -4.500002,-2.08333 q -1.083333,-0.54167 -1.083333,-0.54167 l -2.166666,-1.16666 q -0.04167,0 -0.541666,-0.33333 -0.916666,-0.58334 -1.874999,-1 -0.916666,-0.45834 -1.791666,-1.04167 l -2.708332,-1.41667 q -0.291667,-0.16666 -0.541667,-0.29166 -0.5,-0.25 -1.166666,-0.625 -0.625,-0.375 -1.166666,-0.25 l -2.666666,0.5 q -1.041666,0.0833 -1.999999,0.375 -0.958333,0.29166 -1.958332,0.41666 -0.375,0.0833 -0.75,0.125 -0.333333,0.0417 -0.708333,0.0833 -0.75,0.125 -2.291666,0.5 -1.499999,0.33333 -2.249999,0.54166 -0.791666,0.25 -1.624999,0.41667 -0.833333,0.125 -1.625,0.25 -0.958332,0.25 -0.874999,-0.41667 0.208333,-0.20833 1.374999,-0.625 1.166666,-0.45833 1.541666,-0.58333 0.875,-0.29167 1.291666,-0.54167 0.458334,-0.29166 1.083333,-0.54166 1.166666,-0.41667 1.416666,-0.58334 0.125,-0.0833 0.875,-0.41666 0.25,-0.125 0.416667,-0.25 0.208333,-0.16667 0.458333,-0.29167 0.624999,-0.20833 0.958333,-0.33333 0.624999,-0.25 0.999999,-0.41667 l 4.708332,-2.04166 q 0.499999,-0.25 0.916666,-0.41667 l 2.833332,-1.20833 q 0.5,-0.25 0.958333,-0.45834 0.75,-0.25 0.916666,-0.375 l 1.958333,-0.75 q 0.291666,-0.0833 0.958333,-0.45833 0.749999,-0.25 0.916666,-0.375 l 1.916666,-0.79167 q 0.916666,-0.45833 0.916666,-0.45833 0.25,-0.0833 0.916666,-0.41667 0.291667,-0.125 0.458334,-0.125 0.208333,-0.0417 0.541666,-0.25 1.083333,-0.625 0.875,0.0417 -0.08333,0.16667 -0.625,0.375 -0.375,0.25 -0.291667,0.20833 0.08333,0.41667 0.166667,0.58334 0.125,0.125 0.25,0.5 0.208333,0.625 0.333333,1.16666 0.125,0.54167 0.333333,1.04167 0.04167,0.20833 0.04167,0.29167 0.04167,0.0417 0.125,0.20833 0.125,0.5 0.125,0.5 0.04167,0.0417 0.708329,-0.25 0.41667,-0.16667 0.625,-0.20833 0,-0.58334 -0.125,-1.375 -0.0833,-0.83334 -0.0833,-1.5 -0.0417,-1.16667 -0.125,-1.83334 -0.0833,-0.70833 -0.16667,-1.749995 -0.0417,-0.166666 -0.0417,-0.333333 0,-0.208333 0,-0.416666 l -0.25,-2.749999 q -0.04167,-0.291667 -0.125003,-0.625 -0.04167,-0.375 -0.04167,-0.666666 -0.125,-1.083333 -0.208334,-2.083333 -0.04167,-1.041666 -0.166666,-2.124999 -0.166667,-1.333333 -0.208334,-2.166666 0,-0.874999 -0.124999,-2.041666 -0.04167,-0.249999 -0.125,-0.583333 -0.08333,-0.374999 -0.08333,-0.624999 l -0.125,-1.083333 -0.25,-0.25 q -0.166666,0.08333 -0.249999,0.208333 -0.04167,0.08333 -0.208334,0.166667 l -2.958332,1.374999 q -0.583333,0.291667 -0.708333,0.375 l -1.458333,0.666666 q 0,0.75 0.25,1.458333 0.25,0.666666 0.458333,1.291666 0.416667,1.333333 0.791667,2.583332 0.416666,1.25 0.75,2.624999 l 0.333333,0.916667 q 0.291666,0.541666 0.333333,0.958333 0.125,0.708333 -0.333333,0.583333 -0.833333,-0.166667 -1.291666,-0.75 -0.416667,-0.625 -1,-0.291667 l -1.666666,1 q -0.166667,0.08333 -0.291667,0.166667 -0.499999,0.333333 -1.041666,0.541666 -0.541666,0.208333 -1.041666,0.458333 -0.5,0.25 -1.916666,1 -1.374999,0.749999 -1.874999,1.124999 l -0.125,0.125 q 0,0.583332 -0.375,0.458332 -0.625,-0.125 -1.208333,0.29167 -0.541666,0.375 -1.291666,0.375 0.25,-0.41667 0.833333,-0.58334 0.583333,-0.20833 0.833333,-0.624995 -0.166666,-0.375 -0.583333,-0.541666 -0.208333,0 -0.208333,0.04167 0,0 0,0 l -0.583333,0.291667 q -1.375,0.916664 -1.208333,0.666664 -0.166667,0.29166 -0.541667,1.625 -0.124999,0.25 -0.166666,0.45833 -0.04167,0.16667 -0.125,0.33333 -0.25,0.58334 -0.5,0.58334 0,-0.70834 0.416667,-1 -0.08333,-0.16667 0.04167,-0.5 0,0 0,-0.0417 0,-0.0417 0,-0.0833 l 0.625,-2.166664 q 0.708333,-2.291666 0.5,-2.249999 -0.166667,0.04167 -0.166667,-0.625 0.458333,-0.375 0.875,0.333333 0.458333,0.708333 1.083333,0.416667 -0.04167,-0.333334 -0.291667,-0.5 -0.999999,-0.541667 -1.624999,-1.166666 -0.625,-0.625 -1.25,-0.708333 -0.874999,-0.08333 -1.833332,0.04167 -0.916666,0.125 -1.749999,0.208334 -1.416667,0.208333 -1.208333,-0.125 0.208333,-0.375 0.333333,-1 -1.874999,0.208333 -3.666665,1.166666 -0.625,0.333333 -3.124999,1 -2.458332,0.666666 -2.833332,0.916666 0.08333,0.291667 0.291666,0.416667 l 3.041666,2.458329 q 0.333333,0.25 1.458333,1.125 1.166666,0.83334 1.374999,0.79167 0.08333,0 0.416666,-0.79167 0.208334,-0.375 0.75,-0.33333 0.583333,0 1.083333,-0.125 0.291667,-0.0417 0.416667,-0.125 0.166666,-0.125 0.583333,-0.125 1.416666,0 2.833332,-0.5 0.08333,-0.208334 0.08333,-0.375 0.04167,-0.166667 0.166667,-0.416667 0.25,-0.416666 0.416666,-0.5 0.333333,0.25 0.04167,1.416667 -0.333333,1.08333 -0.166667,0.875 -0.208333,0.45833 -0.166666,0.33333 -0.04167,0.375 -0.04167,0.25 0.04167,-0.125 0.04167,0.0833 0,-0.125 -0.375,0.54166 -0.25,0.41667 -0.458333,1.04167 -0.208334,0.58333 -0.708333,0.625 0,-0.375 0.125,-0.58333 0.125,-0.20834 0.166666,-0.625 -0.375,0 -1.541666,0.70833 -1.166666,0.66667 -1.541666,0.875 l -0.666666,0.41667 q 0,0.0417 -0.04167,0.0417 0,0.0417 0,0.0833 0,0 0,0 0,0 0,0.0417 0,0 0.04167,0 0.208333,0.125 0.749999,0.20834 1.166667,0.16666 0.916667,0.0833 1.458332,0.25 2.083332,-0.29167 0.333333,-0.25 0.458333,-0.29166 0.166667,-0.0417 0.541667,-0.25 0.416666,-0.25 0.749999,-0.20834 0.333334,0.0417 0.583334,-0.58333 0.541666,0.16667 1.708332,-0.5 l 2.541666,-1.16667 q 0,0 0,0 0.04167,0 0.08333,0 0,0 0,0 0.04167,-0.0417 0.04167,-0.0417 l 0.208333,-0.0833 q 0.375,-0.125 1.166666,-0.20833 -0.25,0.33333 -1.166666,0.875 -0.916666,0.5 -1.25,0.625 -1.291666,0.5 -1.166666,0.91667 0.166667,0.41666 -0.208333,1.79166 0.375,0.0417 1.291666,-0.375 0.291667,-0.125 1.833333,-0.58333 1.583332,-0.5 1.916666,-0.5 -0.208334,0.33333 -0.791667,0.625 -0.583333,0.29167 -0.916666,0.41667 -0.916666,0.375 -1.791666,0.875 -0.875,0.45833 -1.749999,0.875 l -2.083333,0.95833 q -0.583333,0.375 -0.874999,0.45833 -0.291667,0.0833 -0.666667,0.33333 -0.25,0.16667 -0.416666,0.25 l -0.958333,0.33334 q -0.125,0.0833 -0.166667,0.0833 0,0 -0.08333,0.0417 l -0.333333,0.20833 q 0,0 -0.04167,0.0417 -0.04167,0 -0.04167,0 -0.04167,0.0417 -0.124999,0.0833 -0.08333,0.0417 -0.08333,0.0417 l -1.208333,0.41666 q 0,0 -0.04167,0 0,0 0,0 -1.625,0.66667 -2.124999,0.66667 -0.125,0.125 0.999999,-0.66667 0.791667,-0.58333 1.041666,-0.70833 0.875,-0.5 0.958333,-0.79167 0,-0.16666 0.04167,-0.91666 0.08333,-0.75 -0.08333,-0.83333 -0.166667,-0.0417 -0.666667,0.16666 -0.291666,0.16667 -1.083333,0.5 -0.791666,0.29167 -1.041666,0.125 0.125,-0.375 1,-0.58333 0.874999,-0.25 1.041666,-0.83333 -1.374999,0.125 -2.791665,0.16666 -1.375,0 -2.791666,0 0,0.625 -0.125,0.875 -0.08333,0.25 -0.08333,0.625 0.583333,0 1.041666,-0.29167 0.458333,-0.33333 0.916666,-0.33333 0,0.33333 -0.458333,0.58333 l -1.374999,0.75 q 0,0 -0.666667,0.33334 l -2.833332,1.29166 q -0.166666,0.0417 -0.416666,0.125 l -0.208334,0.16667 q -0.208333,0.16667 -0.333333,0.95833 -0.08333,0.75 -0.08333,1 -0.125,1.29167 -0.5,2.5 -0.333333,1.16667 -0.333333,2.41667 0.583333,0.375 1.249999,0.66666 0.708334,0.29167 1.333333,0.625 0.166667,0.125 0.333333,0.20834 0.166667,0.0417 0.375,0.125 l 1.291666,0.66666 q 1.166667,0.70834 1.958333,0.375 l 1.374999,-0.54166 q 0.958333,-0.20834 1.125,-0.875 0.125,-0.625 0.291666,-0.875 0.166667,-0.29167 0.208334,-0.66667 l 0.04167,0.20833 q 0.125,0.54167 -0.125,1.66667 -0.208333,1.08333 -0.25,1.625 l -0.166666,0.70833 q 0,0.0417 0,0.0833 0,0 0,0 0,0 0,0.0417 0,0 0,0 l -0.125,0.5 q 0,0 -0.04167,0.0417 0,0 0,0 l -0.583333,2.83333 q -0.04167,0.125 -0.125,0.29167 -0.04167,0.125 -0.04167,0.25 -0.08333,0.25 0.04167,0.45833 0.333333,0.41667 1.625,0 1.291666,-0.45833 1.749999,-0.75 0.666666,-0.45833 1.208333,-1 0.583333,-0.58333 1.249999,-1.125 0.166667,-0.125 0.333333,-0.33333 0.166667,-0.20833 0.416667,-0.41667 0.5,-0.45833 0.958333,-1.08333 0.5,-0.625 1.249999,-1.20833 0.416667,-0.33334 0.875,-0.58334 0.458333,-0.25 0.875,-0.58333 l 0.916666,-0.54167 q 0.583333,-0.29166 1.208333,-0.29166 1.083333,-0.0417 1.583332,0.54166 0.208334,0.25 0.375,0.16667 0.04167,-0.0417 -0.125,-0.41667 -0.291666,-0.375 -0.791666,-0.83333 -1.416666,-1.08333 -2.333332,-0.875 -0.916667,0.16667 -1.041667,-0.41667 0.291667,-0.16666 0.958333,-0.20833 0.708333,-0.0417 0.958333,-0.29167 z m -22.458324,-0.45833 q -0.25,0.25 -0.333333,0.58333 0.25,0.125 0.708333,0.45834 0.5,0.33333 0.875,0.33333 0.208333,-0.29167 0.375,-1.33333 l 0.708333,-4.25 q -0.541667,0 -1.625,-0.0417 -1.041666,-0.0417 -1.374999,0.125 l 0.291666,2.16667 q 0.125,1.04167 0.25,1.04167 0.125,0 0.125,0.91666 z m -5.333331,3.41667 q 0.5,0.375 2.166666,0.75 1.708332,0.375 2.541665,0.66666 0.25,0.125 0.458334,0.16667 0.208333,0.0417 0.458333,0.125 0.25,0.125 0.458333,0.16667 0.208333,0.0417 0.5,0.125 l 5.374997,1.79166 q 0.416667,0.25 0.958333,0.33334 0.375,0.0417 1.25,-0.58334 0.208333,-0.125 0.291666,-0.375 -0.208333,-0.125 -0.708333,-0.29166 l -1.833332,-1 q -0.625,-0.29167 -1.291666,-0.58334 -0.625,-0.29166 -1.166667,-0.66666 -0.249999,-0.125 -0.374999,-0.125 -0.125,-0.0417 -0.375,-0.16667 -0.541667,-0.20833 -1.333333,-0.58333 -0.791666,-0.41667 -1.208333,-0.58334 l -0.5,-0.20833 q -0.25,-0.125 -0.416666,-0.125 -0.125,-0.0417 -0.375,-0.25 -0.25,-0.16667 -0.666666,-0.0833 -0.125,-0.58334 -0.208334,-0.58334 -0.08333,0 0.166667,-0.625 0.166667,-0.49999 0.125,-1.45833 -0.04167,-0.58333 -0.333333,-2.16666 -0.291667,-1.58334 -0.291667,-2 -0.04167,-1.20834 -0.166666,-2.375 -0.125,-1.16667 -0.08333,-2.29167 0.375,-0.33333 1.541666,-0.33333 1.166667,0 1.75,0.0417 0.833333,0.0417 1.666666,0.16666 0.874999,0.0833 1.666666,0.16667 3.374998,0.33333 6.874997,0.33333 0.375,0 0.999999,0.125 0.625,0.125 1.125,0 0.333333,-0.0833 0.458333,-0.375 -0.125,-0.125 -0.333333,-0.125 0.08333,0.0417 -0.291667,-0.0833 -0.291666,-0.0833 -0.625,-0.0833 -0.04167,0 -1.291666,-0.125 -0.624999,-0.125 -1.333332,-0.125 -0.666667,0 -1.291667,-0.125 l -2.541665,-0.25 q -0.875,0 -1.333333,-0.0833 -0.458333,-0.125 -1.166666,-0.25 -0.625,-0.0833 -1.333333,-0.125 -0.666666,-0.0417 -1.249999,-0.16666 -0.416667,0 -1.125,-0.25 -0.291666,-0.0417 -0.625,-0.0833 -0.333333,-0.0417 -0.624999,-0.125 -0.541667,-0.0833 -1.291667,-0.16666 -0.541666,0 -0.916666,0.375 -0.375,0.41666 -0.916666,0.875 -0.5,0.45833 -0.583333,0.75 0.166666,0.375 0.166666,0.33333 0.04167,-0.0833 0.166667,0.58333 l 1.041666,4.33333 q 0.08333,0.375 0.166667,0.66667 0.125,0.25 0.25,0.58333 l 0.749999,3.41667 q 0.166667,1 -0.249999,0.75 -0.375,-0.29167 -0.416667,-0.29167 l -2.208332,-0.5 q 0,0.375 0.333333,0.95833 0.375,0.54167 0.04167,1.29167 l -0.208333,0.33333 q 0,0.0417 -0.04167,0.0417 l -0.333334,0.41667 q -0.04167,0.0417 -0.08333,0.125 z m 30.416654,4.33333 q 0.416667,0.0833 0.791666,-0.25 -0.291666,-0.41667 -0.708333,-0.54167 v 0.125 q -0.04167,0.0833 -0.04167,0.20834 -0.08333,0.375 -0.04167,0.45833 z m -20.708325,-0.625 q -1.374999,-0.33333 -1.416666,-0.41667 -0.04167,-0.0833 -0.708333,-0.33333 -0.624999,-0.125 -0.874999,-0.125 l -0.458334,2.375 q 0.25,0.0833 0.833333,-0.16667 0.625,-0.29166 0.958333,-0.41666 l 1.333333,-0.5 q 0.208333,-0.0833 0.333333,-0.41667 z m 20.083325,0.75 q -0.416666,-0.25 -1.249999,0.0417 l -0.375,0.125 q -0.125,0.0417 -0.125,0.0417 -0.04167,0 -0.08333,0.0417 0,0 0,0 l -0.208334,0.16667 q -0.124999,0.125 -0.124999,0.125 -0.125,0.24999 -0.125,0.29166 0.208333,0.0417 0.583333,-0.125 0.08333,0 0.125,0 0.04167,-0.0417 0.166666,-0.0833 l 0.875,-0.33333 q 0.458333,-0.125 0.541666,-0.29167 z m -14.249994,-0.83333 q -0.375,0.0417 -1.249999,0.625 l -1.166666,0.75 q -1.125,0.33333 -1.333333,0.54166 -0.416667,0.45833 -0.458333,0.5 -0.5,0.20833 -0.583333,0.375 0.08333,0.375 0.999999,1.5 0.958333,1.08333 1.333333,1.41667 0.583333,0.70833 1.041666,0.70833 0.166667,-0.375 0.375,-1.54167 0.208333,-1.20833 0.333333,-1.58333 0.208333,-0.66667 0.291667,-1.54167 0.125,-0.91666 0.416666,-1.74999 z m 22.291658,3.79166 q -0.208334,0.75 -0.208334,1.08333 l 2.541666,1.33334 q 0,0 0,0 0.04167,0 0.08333,0 0,0.0417 0,0.0417 0.04167,0 0.04167,0 l 3.041665,1.83334 q 0.208334,0.125 0.416662,0.20833 0.20834,0.0833 0.45834,0.20833 l 5.625,3.29167 q 0.66666,0.29166 1,0.33333 -0.25,-0.5 -1.41667,-1.25 -0.45833,-0.33333 -0.54167,-0.375 -0.20833,-0.0833 -0.16666,-0.0417 0.0417,0.0417 -0.125,-0.0833 l -0.79167,-0.54167 q -0.875,-0.66666 -1.58333,-1.12499 l -0.79167,-0.54167 q 0.0417,0.0833 -0.875,-0.41667 l -4.83333,-3.125 q -0.375,-0.16666 -0.916666,-0.5 -0.541667,-0.33333 -0.958333,-0.33333 z m 22.499989,7.66666 q -0.0417,1.08334 0.0417,1.91667 0.125,0.79167 0.25,1.66667 0.125,1.20833 0.0833,1.83333 0,0.58333 0,1.70833 0,0.58333 -0.45833,2.45833 -0.41667,1.875 -0.375,2.25 0,0.625 -0.54167,1.04167 -0.20833,-0.16667 -0.16666,-0.20833 0.0417,-0.0417 -0.125,-0.25 l -2.70834,-1.83334 q -0.41666,-0.33333 -0.41666,-0.33333 -0.25,-0.125 -0.375,-0.25 -0.45834,-0.45833 -0.70834,-0.66667 -0.125,-0.0833 -0.20833,-0.125 -0.0833,-0.0417 -0.20833,-0.16666 l -1,-0.875 q -0.25,-0.16667 -0.45834,-0.25 -0.16666,-0.0833 -0.33333,-0.29167 -0.29167,-0.25 -0.66667,-0.375 -0.375,-0.16667 -0.625,-0.375 -0.29166,-0.16667 -1.37499,-0.45833 l -1.45834,-0.54167 q -0.33333,-0.0833 -0.41666,-0.20833 -0.375,-0.20833 -0.91667,-0.41667 -0.58333,-0.16666 -1.04167,-0.45833 -0.41666,-0.29167 -0.91666,-0.5 l -0.45834,-0.20833 q -0.25,-0.125 -0.20833,-0.0833 -0.16667,-0.0417 -0.83333,-0.5 -0.625002,-0.375 -1.333335,-0.625 -0.666666,-0.29166 -1.291666,-0.66666 -0.791666,-0.375 -0.874999,-0.41667 -0.5,-0.16667 -0.916667,-0.45833 -0.374999,-0.29167 -0.708333,-0.5 l -0.958333,-0.375 q -1.208332,-0.41667 -1.291666,-0.75 -0.04167,-0.33334 -0.04167,-1.83333 0,-0.375 0.04167,-0.66667 0.04167,-0.33333 0.04167,-0.66667 0,-0.41666 -0.08333,-0.625 -0.04167,-0.20833 0.08333,-0.70833 0.08333,-0.45833 0.08333,-1.375 -0.416666,0.0417 -0.583333,0.20833 -0.166666,0.125 -0.458333,0.25 l -0.875,0.5 q -1.083333,0.75 -1.833332,1 l -3.749999,1.83334 q -0.833333,0.49999 -1.874999,0.95833 -1.041666,0.45833 -1.916666,0.83333 -0.541666,0.25 -0.999999,0.45833 -0.416667,0.20834 -0.916667,0.45834 l -0.916666,0.45833 q -0.791666,0.29167 -0.875,0.0833 -0.124999,-0.16666 -0.04167,-1.08333 0.125,-0.95833 0.125,-1.33333 -0.583333,-0.29167 -0.416667,-0.16667 -0.291666,-0.16667 -0.333333,-0.20833 -0.875,-0.375 -0.791666,-0.33333 -0.916667,-0.29167 -1.291666,-0.0833 -0.04167,0.0417 -0.416667,0.125 0.375,-0.0417 -0.75,0.375 l -2.791665,0.375 q -0.125,1.04167 -0.25,1.375 l -0.125,0.20833 q -0.04167,0.0833 -0.166667,0.45834 -0.08333,0.25 -0.374999,0.83333 -0.5,0.5 -0.666667,0.54167 0.166667,0.125 -0.666666,-0.70834 0,0 -0.625,-0.625 -0.166666,-0.16666 -0.375,-0.29166 -0.458333,-0.29167 -1.333333,-0.95834 -0.874999,-0.70833 -1.041666,-1.20833 -0.166666,-0.375 -0.08333,-1.29166 0.125,-0.95834 0.166667,-1.33334 -0.75,0 -2.125,0.625 0.08333,-0.0417 -1.041666,0.33334 -0.416666,0.125 -0.916666,0.29166 -0.5,0.125 -0.375,-0.79166 0,-0.29167 0.125,-1.75 0.125,-1.5 0,-1.75 -0.04167,-0.0417 -1.083333,-0.41667 -0.541666,-0.16667 -1.124999,-0.29167 -0.583333,-0.16666 -1.083333,-0.375 l -1,-0.375 q -0.791666,-0.29166 -1.833332,-0.54166 -1.041667,-0.29167 -1.583333,-0.54167 -0.04167,0 -1.041666,-0.125 0,-0.79166 0.166666,-2.70833 0.08333,-1 0.125,-1.08333 0.08333,-0.0833 0.125,-1.5 0.208333,-0.20834 0.333333,-0.45834 0.416667,0 1.125,0.16667 0.75,0.125 0.999999,-0.0833 -0.124999,-0.29167 -0.374999,-0.29167 0,0.0417 -0.04167,0.0417 0,-0.0417 0,-0.0833 0.375,-0.0417 0.625,-1.33333 0.08333,-0.375 0.04167,-0.95833 0,-0.58333 0.25,-0.83333 0.25,-0.16667 0.625,0.0417 0.375,0.20834 0.708333,0.20834 0,-0.125 -0.208333,-0.54167 -0.125,-0.125 -0.25,-0.625 -0.125,-0.25 -0.333333,-0.5 -0.208334,-0.29167 -0.208334,-0.58333 -0.08333,-0.45834 -0.08333,-1.625 0,-1.16667 0.04167,-1.66667 0.125,-1.08333 0.04167,-3.45833 0,-0.54167 0.5,-1.16667 0.375,-0.5 0.708333,-0.83333 0.75,-0.66667 0.833333,-0.83333 0.125,-0.20834 1.125,-0.0417 l 7.58333,1.16667 q -0.08333,-0.0417 -0.166667,-0.125 -0.08333,-0.125 -0.125,-0.20834 l -0.333333,-0.20833 q -0.208333,-0.125 -0.333333,-0.20833 -0.125,-0.125 -0.291666,-0.25 -1.125,-0.79167 -1.291667,-1.20834 -0.125,-0.41666 0.04167,-2.333328 0.08333,-0.958333 0.166667,-1.5 0.08333,-0.583333 0.08333,-1.666666 1.041666,0 1.041666,0 0.791666,-0.04167 2.333333,-0.583333 l 1.624999,-0.458333 q 0.916666,-0.25 1.458333,-0.416666 0.583333,-0.208334 1.541666,-0.625 1.291666,-0.583333 2.999998,-1 0.583333,-0.125 0.666667,-0.208333 0.125,-0.08333 0.958333,0.04167 l -0.08333,0.958333 q 0.625,0.04167 1.791666,-0.25 1.208333,-0.291667 2.166666,-0.291667 0.291667,0.458333 0.583333,0.583333 1.166666,0.75 1.375,0.875 0.458333,0.458333 0.999999,0.916666 0.583333,0.458333 0.625,0.833333 0.08333,0.833333 -0.458333,1.166666 -0.541667,0.291667 0.166666,1.25 0.5,0 2,-0.958333 0.458333,-0.25 0.958332,-0.458333 0.541667,-0.208333 1,-0.541667 l 1.833333,-1.124999 q 0.249999,-0.125 0.458333,-0.25 0.25,-0.166667 0.5,-0.333333 0.708333,-0.416667 0.833333,-0.625 -0.166667,-0.166667 -0.416667,-0.958333 l -0.458333,-0.875 q 0.04167,0.166667 0.166666,-1.166666 0.291667,-2.458332 0.375,-3.916665 0,-0.749999 0.125,-1.249999 0.08333,-0.333333 0.166667,-1.25 0.25,-0.125 0.5,-0.166666 0.291666,-0.04167 0.541666,-0.166667 0.625,-0.333333 1.291666,-0.708333 0.708333,-0.416666 1.333333,-0.791666 0.375,-0.25 0.875,-0.416667 0.541666,-0.208333 0.999999,-0.458333 1.125,-0.541666 1.458333,-0.625 0.583333,-0.04167 0.458333,0.375 -0.08333,0.375 0,1 l 0.416667,3.874998 q 0.04167,0.75 0,1.416666 0,0.666667 0.125,1.333333 0.208324,1.499999 0.291664,2.458332 0.0417,0.708333 0.0417,1.416666 0.0417,0.666667 0.16667,1.291667 0.54167,4.624998 0.625,7.833323 0.0417,2.08334 0.125,2.25 0.125,0.125 -0.125,1.875 -0.0417,0.16667 -0.125,1.08333 -0.125,1.125 -0.125,1.20834 -0.0833,0.75 -0.125,0.66666 0,-0.125 -0.125,0.33334 1.45833,1.41666 1.79167,1.625 1.625,1.375 2.5,2.45833 0.16666,0.25 0.25,0.29167 0.0833,0 0.20833,0.125 0.0417,0.0417 0.125,0.16666 0.29167,0.5 0.70833,0.875 0.41667,0.375 0.79167,0.75 0.25,0.33333 0.54167,0.58333 0.29166,0.20834 0.58333,0.45834 l 1.125,0.91666 q 0.58333,0.625 0.91666,0.79167 0.5,0.29167 0.91667,0.75 0.45833,0.41667 0.95833,0.79167 -0.20833,-0.125 0.45834,0.375 l 2.25,1.95833 q 0.5,0.41666 0.91666,0.79166 0.45833,0.375 0.95833,0.75 0.25,0.25 0.5,0.375 0.33334,0.20834 0.95834,0.66667 l 3.33333,2.54167 q 0.5,0.33333 0.75,0.79166 0.25,0.625 -0.0833,2.375 -0.29167,1.75 -0.29167,2.625 0,0.66667 -0.125,0.83333 l -1.70833,2.41667 q -0.0417,0 -0.0417,0.0417 l -1.41667,2.12499 q -0.0833,-0.0417 -0.25,-0.12499 -0.125,-0.125 -0.20833,-0.25 -0.33333,-0.16667 -0.33333,-0.16667 -0.125,-0.0417 -0.125,0 0,0.0417 -0.16667,-0.0833 l 0.16667,-3.08334 q 0.16666,-1.79166 -0.33334,-2.125 -0.41666,-0.125 -0.58333,-0.125 z"
         id="path988"
         style="font-size:85.3333px;font-family:diel;-inkscape-font-specification:diel;text-align:center;text-anchor:middle;white-space:pre;shape-inside:url(#rect236);display:inline;stroke-width:3.77953;stroke-linecap:round;stroke-linejoin:round"
         transform="matrix(0.95143402,0,0,0.95143402,-49.87566,-54.748343)" />
    </g>
  </g>
</svg>
